<svg width="214" height="72" viewBox="0 0 214 72" fill="none" xmlns="http://www.w3.org/2000/svg">
<rect x="8.5" y="8.5" width="197" height="55" rx="7.5" fill="#5A6DED"/>
<path d="M83.753 37.448C83.7743 37.3093 83.8277 37.208 83.913 37.144C84.009 37.0693 84.1103 37.032 84.217 37.032H85.513C85.6303 37.032 85.7317 37.0747 85.817 37.16C85.913 37.2347 85.9557 37.336 85.945 37.464C85.913 37.9013 85.801 38.3387 85.609 38.776C85.4277 39.2133 85.145 39.608 84.761 39.96C84.377 40.312 83.8917 40.6 83.305 40.824C82.7183 41.048 82.009 41.16 81.177 41.16C80.441 41.16 79.7903 41.0533 79.225 40.84C78.6597 40.616 78.1797 40.312 77.785 39.928C77.3903 39.5333 77.081 39.064 76.857 38.52C76.6437 37.976 76.5157 37.384 76.473 36.744C76.4517 36.3387 76.441 35.8907 76.441 35.4C76.441 34.9093 76.4517 34.4613 76.473 34.056C76.5157 33.416 76.6437 32.824 76.857 32.28C77.081 31.736 77.3903 31.272 77.785 30.888C78.1797 30.4933 78.6597 30.1893 79.225 29.976C79.7903 29.752 80.441 29.64 81.177 29.64C82.009 29.64 82.7183 29.752 83.305 29.976C83.8917 30.2 84.377 30.488 84.761 30.84C85.145 31.192 85.4277 31.592 85.609 32.04C85.801 32.4773 85.913 32.9093 85.945 33.336C85.9557 33.464 85.913 33.5707 85.817 33.656C85.7317 33.7307 85.6303 33.768 85.513 33.768H84.217C84.1103 33.768 84.009 33.736 83.913 33.672C83.817 33.5973 83.7583 33.4907 83.737 33.352C83.705 33.1387 83.6303 32.9307 83.513 32.728C83.3957 32.5253 83.2357 32.344 83.033 32.184C82.8303 32.024 82.5743 31.896 82.265 31.8C81.9557 31.6933 81.593 31.64 81.177 31.64C80.761 31.64 80.3983 31.704 80.089 31.832C79.7797 31.96 79.5183 32.1307 79.305 32.344C79.1023 32.5573 78.9423 32.8133 78.825 33.112C78.7183 33.4107 78.6543 33.7253 78.633 34.056C78.6117 34.4613 78.601 34.9093 78.601 35.4C78.601 35.8907 78.6117 36.3387 78.633 36.744C78.6543 37.0853 78.7183 37.4053 78.825 37.704C78.9423 37.992 79.1023 38.2427 79.305 38.456C79.5183 38.6693 79.7797 38.84 80.089 38.968C80.3983 39.096 80.761 39.16 81.177 39.16C81.593 39.16 81.9557 39.112 82.265 39.016C82.5743 38.9093 82.8303 38.776 83.033 38.616C83.2463 38.456 83.4117 38.2747 83.529 38.072C83.6463 37.8693 83.721 37.6613 83.753 37.448ZM91.3305 32.52C91.9172 32.52 92.4452 32.6107 92.9145 32.792C93.3945 32.9733 93.8052 33.224 94.1465 33.544C94.4985 33.864 94.7758 34.2373 94.9785 34.664C95.1918 35.0907 95.3145 35.5493 95.3465 36.04C95.3572 36.136 95.3625 36.2587 95.3625 36.408C95.3625 36.5573 95.3625 36.7067 95.3625 36.856C95.3625 37.0053 95.3625 37.1547 95.3625 37.304C95.3625 37.4427 95.3572 37.56 95.3465 37.656C95.3038 38.1467 95.1812 38.6053 94.9785 39.032C94.7758 39.4587 94.4985 39.832 94.1465 40.152C93.8052 40.4613 93.3945 40.7067 92.9145 40.888C92.4452 41.0693 91.9172 41.16 91.3305 41.16C90.7438 41.16 90.2105 41.0693 89.7305 40.888C89.2612 40.7067 88.8505 40.4613 88.4985 40.152C88.1572 39.832 87.8852 39.4587 87.6825 39.032C87.4798 38.6053 87.3572 38.1467 87.3145 37.656C87.3038 37.56 87.2932 37.4427 87.2825 37.304C87.2825 37.1547 87.2825 37.0053 87.2825 36.856C87.2825 36.7067 87.2825 36.5573 87.2825 36.408C87.2932 36.2587 87.3038 36.136 87.3145 36.04C87.3465 35.5493 87.4638 35.0907 87.6665 34.664C87.8798 34.2373 88.1572 33.864 88.4985 33.544C88.8505 33.224 89.2612 32.9733 89.7305 32.792C90.2105 32.6107 90.7438 32.52 91.3305 32.52ZM93.2665 36.12C93.2345 35.7893 93.1545 35.5173 93.0265 35.304C92.9092 35.08 92.7598 34.904 92.5785 34.776C92.3972 34.648 92.1998 34.5627 91.9865 34.52C91.7732 34.4667 91.5545 34.44 91.3305 34.44C91.1065 34.44 90.8878 34.4667 90.6745 34.52C90.4612 34.5627 90.2638 34.648 90.0825 34.776C89.9012 34.904 89.7465 35.08 89.6185 35.304C89.5012 35.5173 89.4265 35.7893 89.3945 36.12C89.3838 36.2053 89.3732 36.312 89.3625 36.44C89.3625 36.568 89.3625 36.7013 89.3625 36.84C89.3625 36.9787 89.3625 37.1173 89.3625 37.256C89.3732 37.384 89.3838 37.4853 89.3945 37.56C89.4265 37.8907 89.5012 38.168 89.6185 38.392C89.7465 38.6053 89.9012 38.776 90.0825 38.904C90.2638 39.032 90.4612 39.1227 90.6745 39.176C90.8878 39.2187 91.1065 39.24 91.3305 39.24C91.5545 39.24 91.7732 39.2187 91.9865 39.176C92.1998 39.1227 92.3972 39.032 92.5785 38.904C92.7598 38.776 92.9092 38.6053 93.0265 38.392C93.1545 38.168 93.2345 37.8907 93.2665 37.56C93.2772 37.4853 93.2825 37.384 93.2825 37.256C93.2825 37.1173 93.2825 36.9787 93.2825 36.84C93.2825 36.7013 93.2825 36.568 93.2825 36.44C93.2825 36.312 93.2772 36.2053 93.2665 36.12ZM104.99 40.568C104.99 40.6853 104.947 40.7867 104.862 40.872C104.777 40.9573 104.675 41 104.558 41H103.342C103.225 41 103.123 40.9573 103.038 40.872C102.953 40.7867 102.91 40.6853 102.91 40.568V36.504C102.91 35.864 102.761 35.352 102.462 34.968C102.163 34.584 101.705 34.392 101.086 34.392C100.521 34.392 100.073 34.584 99.7421 34.968C99.4221 35.352 99.2621 35.864 99.2621 36.504V40.568C99.2621 40.6853 99.2195 40.7867 99.1341 40.872C99.0488 40.9573 98.9475 41 98.8301 41H97.6141C97.4968 41 97.3955 40.9573 97.3101 40.872C97.2248 40.7867 97.1821 40.6853 97.1821 40.568V33.112C97.1821 32.9947 97.2248 32.8933 97.3101 32.808C97.3955 32.7227 97.4968 32.68 97.6141 32.68H98.8301C98.9475 32.68 99.0488 32.7227 99.1341 32.808C99.2195 32.8933 99.2621 32.9947 99.2621 33.112V33.48C99.5395 33.2027 99.8648 32.9733 100.238 32.792C100.611 32.6107 101.054 32.52 101.566 32.52C102.217 32.52 102.761 32.6213 103.198 32.824C103.635 33.0267 103.987 33.2987 104.254 33.64C104.521 33.9813 104.707 34.3813 104.814 34.84C104.931 35.288 104.99 35.7627 104.99 36.264V40.568ZM109.842 37.992C109.842 38.3227 109.927 38.5893 110.098 38.792C110.279 38.984 110.61 39.08 111.09 39.08H112.066C112.183 39.08 112.284 39.1227 112.37 39.208C112.455 39.2933 112.498 39.3947 112.498 39.512V40.568C112.498 40.6853 112.455 40.7867 112.37 40.872C112.284 40.9573 112.183 41 112.066 41H110.882C109.879 41 109.106 40.76 108.562 40.28C108.028 39.7893 107.762 39.0427 107.762 38.04V34.6H106.706C106.588 34.6 106.487 34.5573 106.402 34.472C106.316 34.3867 106.274 34.2853 106.274 34.168V33.112C106.274 32.9947 106.316 32.8933 106.402 32.808C106.487 32.7227 106.588 32.68 106.706 32.68H107.762V30.072C107.762 29.9547 107.804 29.8533 107.89 29.768C107.975 29.6827 108.076 29.64 108.194 29.64H109.41C109.527 29.64 109.628 29.6827 109.714 29.768C109.799 29.8533 109.842 29.9547 109.842 30.072V32.68H111.906C112.023 32.68 112.124 32.7227 112.21 32.808C112.295 32.8933 112.338 32.9947 112.338 33.112V34.168C112.338 34.2853 112.295 34.3867 112.21 34.472C112.124 34.5573 112.023 34.6 111.906 34.6H109.842V37.992ZM114.073 34.728C114.115 34.504 114.211 34.264 114.361 34.008C114.521 33.752 114.739 33.512 115.017 33.288C115.305 33.064 115.651 32.8827 116.057 32.744C116.473 32.5947 116.953 32.52 117.497 32.52C118.041 32.52 118.531 32.5947 118.969 32.744C119.406 32.8827 119.779 33.0907 120.089 33.368C120.409 33.6453 120.654 33.9973 120.825 34.424C120.995 34.84 121.081 35.32 121.081 35.864V40.568C121.081 40.6853 121.038 40.7867 120.953 40.872C120.867 40.9573 120.766 41 120.649 41H119.433C119.315 41 119.214 40.9573 119.129 40.872C119.043 40.7867 119.001 40.6853 119.001 40.568V40.04C118.777 40.3493 118.451 40.616 118.025 40.84C117.609 41.0533 117.075 41.16 116.425 41.16C115.966 41.16 115.555 41.1013 115.193 40.984C114.83 40.856 114.526 40.68 114.281 40.456C114.035 40.232 113.843 39.9707 113.705 39.672C113.577 39.3627 113.513 39.0267 113.513 38.664C113.513 37.928 113.774 37.352 114.297 36.936C114.819 36.52 115.518 36.2373 116.393 36.088L119.001 35.64C119.001 35.2027 118.857 34.8933 118.569 34.712C118.281 34.5307 117.923 34.44 117.497 34.44C117.23 34.44 117.022 34.4773 116.873 34.552C116.723 34.6267 116.579 34.728 116.441 34.856C116.345 34.9413 116.254 35 116.169 35.032C116.094 35.064 116.009 35.08 115.913 35.08H114.425C114.318 35.08 114.227 35.048 114.153 34.984C114.078 34.92 114.051 34.8347 114.073 34.728ZM116.745 39.24C117.107 39.24 117.427 39.192 117.705 39.096C117.993 38.9893 118.233 38.8507 118.425 38.68C118.617 38.5093 118.761 38.3173 118.857 38.104C118.953 37.8907 119.001 37.672 119.001 37.448V37.288L116.825 37.672C116.387 37.7467 116.073 37.8587 115.881 38.008C115.689 38.1467 115.593 38.3387 115.593 38.584C115.593 38.808 115.705 38.9733 115.929 39.08C116.163 39.1867 116.435 39.24 116.745 39.24ZM124.893 36.28C124.872 36.44 124.861 36.6267 124.861 36.84C124.861 37.0533 124.872 37.24 124.893 37.4C124.925 37.7307 125 38.0133 125.117 38.248C125.235 38.4827 125.379 38.6747 125.549 38.824C125.731 38.9627 125.928 39.0693 126.141 39.144C126.355 39.208 126.573 39.24 126.797 39.24C127.064 39.24 127.288 39.2187 127.469 39.176C127.651 39.1333 127.805 39.0747 127.933 39C128.061 38.9147 128.168 38.824 128.253 38.728C128.349 38.6213 128.44 38.504 128.525 38.376C128.589 38.28 128.664 38.184 128.749 38.088C128.835 37.992 128.936 37.944 129.053 37.944H130.269C130.387 37.944 130.488 37.9867 130.573 38.072C130.669 38.1573 130.712 38.2587 130.701 38.376C130.691 38.6 130.611 38.872 130.461 39.192C130.312 39.512 130.077 39.8213 129.757 40.12C129.448 40.408 129.048 40.6533 128.557 40.856C128.067 41.0587 127.48 41.16 126.797 41.16C126.211 41.16 125.683 41.064 125.213 40.872C124.744 40.6693 124.333 40.4027 123.981 40.072C123.64 39.7307 123.368 39.3413 123.165 38.904C122.973 38.456 122.856 37.9867 122.813 37.496C122.792 37.304 122.781 37.0907 122.781 36.856C122.781 36.6213 122.792 36.4027 122.813 36.2C122.845 35.7093 122.963 35.24 123.165 34.792C123.368 34.344 123.64 33.9547 123.981 33.624C124.323 33.2827 124.728 33.016 125.197 32.824C125.677 32.6213 126.211 32.52 126.797 32.52C127.48 32.52 128.067 32.6213 128.557 32.824C129.048 33.0267 129.448 33.2773 129.757 33.576C130.077 33.864 130.312 34.168 130.461 34.488C130.611 34.808 130.691 35.08 130.701 35.304C130.712 35.4213 130.669 35.5227 130.573 35.608C130.488 35.6933 130.387 35.736 130.269 35.736H129.053C128.936 35.736 128.835 35.688 128.749 35.592C128.664 35.496 128.589 35.4 128.525 35.304C128.44 35.176 128.349 35.064 128.253 34.968C128.168 34.8613 128.061 34.7707 127.933 34.696C127.805 34.6107 127.651 34.5467 127.469 34.504C127.288 34.4613 127.064 34.44 126.797 34.44C126.573 34.44 126.355 34.4773 126.141 34.552C125.928 34.616 125.731 34.7227 125.549 34.872C125.379 35.0107 125.235 35.1973 125.117 35.432C125 35.6667 124.925 35.9493 124.893 36.28ZM135.248 37.992C135.248 38.3227 135.333 38.5893 135.504 38.792C135.685 38.984 136.016 39.08 136.496 39.08H137.472C137.589 39.08 137.69 39.1227 137.776 39.208C137.861 39.2933 137.904 39.3947 137.904 39.512V40.568C137.904 40.6853 137.861 40.7867 137.776 40.872C137.69 40.9573 137.589 41 137.472 41H136.288C135.285 41 134.512 40.76 133.968 40.28C133.434 39.7893 133.168 39.0427 133.168 38.04V34.6H132.112C131.994 34.6 131.893 34.5573 131.808 34.472C131.722 34.3867 131.68 34.2853 131.68 34.168V33.112C131.68 32.9947 131.722 32.8933 131.808 32.808C131.893 32.7227 131.994 32.68 132.112 32.68H133.168V30.072C133.168 29.9547 133.21 29.8533 133.296 29.768C133.381 29.6827 133.482 29.64 133.6 29.64H134.816C134.933 29.64 135.034 29.6827 135.12 29.768C135.205 29.8533 135.248 29.9547 135.248 30.072V32.68H137.312C137.429 32.68 137.53 32.7227 137.616 32.808C137.701 32.8933 137.744 32.9947 137.744 33.112V34.168C137.744 34.2853 137.701 34.3867 137.616 34.472C137.53 34.5573 137.429 34.6 137.312 34.6H135.248V37.992Z" fill="white"/>
<rect x="8.5" y="8.5" width="197" height="55" rx="7.5" stroke="white"/>
</svg>
