<svg width="118" height="122" viewBox="0 0 118 122" fill="none" xmlns="http://www.w3.org/2000/svg">
<path d="M117.079 55.177C117.198 56.4577 117.278 57.7502 117.318 59.053L116.319 59.0839C116.339 59.7201 116.348 60.3589 116.348 61.0001C116.348 61.6413 116.339 62.2801 116.319 62.9164L117.318 62.9472C117.278 64.2501 117.198 65.5425 117.079 66.8233L116.083 66.7305C115.964 68.0075 115.805 69.2727 115.609 70.5246L116.597 70.6796C116.395 71.9667 116.153 73.2402 115.873 74.4987L114.897 74.2816C114.619 75.5312 114.303 76.7657 113.95 77.9837L114.91 78.2623C114.548 79.5113 114.147 80.7434 113.71 81.957L112.769 81.6178C112.335 82.8212 111.864 84.0061 111.358 85.1711L112.275 85.5697C111.757 86.7614 111.203 87.9326 110.614 89.0818L109.724 88.6255C109.141 89.762 108.523 90.8767 107.872 91.968L108.731 92.4804C108.065 93.5955 107.366 94.6867 106.633 95.7523L105.809 95.1858C105.086 96.2375 104.331 97.2639 103.544 98.2634L104.33 98.8817C103.528 99.9013 102.694 100.893 101.83 101.856L101.086 101.189C100.234 102.138 99.3528 103.058 98.4432 103.948L99.1425 104.663C98.216 105.57 97.2607 106.445 96.2781 107.289L95.6269 106.53C94.6601 107.359 93.6665 108.157 92.6477 108.921L93.2476 109.721C92.2113 110.498 91.1493 111.24 90.0631 111.947L89.5176 111.109C88.4511 111.803 87.361 112.462 86.2488 113.085L86.7371 113.957C85.6082 114.589 84.4569 115.183 83.2847 115.739L82.8563 114.835C81.7084 115.38 80.5401 115.886 79.353 116.353L79.7191 117.284C78.5166 117.757 77.2951 118.19 76.056 118.582L75.7542 117.629C74.5457 118.011 73.3201 118.354 72.0791 118.655L72.3149 119.627C71.0615 119.931 69.7925 120.194 68.5094 120.414L68.3406 119.428C67.0925 119.642 65.8306 119.814 64.5565 119.944L64.6577 120.938C63.378 121.068 62.0862 121.156 60.7836 121.2L60.75 120.201C60.1149 120.222 59.4771 120.233 58.8368 120.233C58.1966 120.233 57.5588 120.222 56.9237 120.201L56.89 121.2C55.5875 121.156 54.2957 121.068 53.016 120.938L53.1171 119.944C51.843 119.814 50.5812 119.642 49.333 119.428L49.1643 120.414C47.8811 120.194 46.6121 119.931 45.3587 119.627L45.5945 118.655C44.3535 118.354 43.128 118.011 41.9194 117.629L41.6177 118.582C40.3786 118.19 39.1571 117.757 37.9546 117.284L38.3207 116.353C37.1336 115.886 35.9653 115.38 34.8173 114.835L34.389 115.739C33.2168 115.183 32.0654 114.589 30.9366 113.957L31.4248 113.085C30.3126 112.462 29.2225 111.803 28.156 111.109L27.6106 111.947C26.5244 111.24 25.4624 110.498 24.4261 109.721L25.0259 108.921C24.0071 108.157 23.0135 107.359 22.0468 106.53L21.3955 107.289C20.413 106.445 19.4576 105.57 18.5311 104.663L19.2305 103.948C18.3209 103.058 17.4394 102.138 16.5878 101.189L15.8434 101.856C14.9794 100.893 14.1456 99.9013 13.3434 98.8817L14.1293 98.2634C13.343 97.2639 12.5876 96.2375 11.8646 95.1858L11.0405 95.7523C10.3081 94.6867 9.60837 93.5955 8.94297 92.4804L9.80172 91.968C9.15059 90.8767 8.53283 89.762 7.94992 88.6255L7.06012 89.0818C6.47072 87.9326 5.91636 86.7614 5.39852 85.5697L6.31567 85.1711C5.80944 84.0061 5.33868 82.8212 4.9048 81.6178L3.96408 81.957C3.52652 80.7434 3.12588 79.5114 2.76354 78.2623L3.72394 77.9837C3.37062 76.7657 3.05431 75.5312 2.77638 74.2816L1.80023 74.4987C1.52033 73.2402 1.27872 71.9668 1.07673 70.6796L2.06464 70.5246C1.86819 69.2727 1.70982 68.0075 1.59081 66.7305L0.595123 66.8233C0.475773 65.5426 0.395384 64.2501 0.355189 62.9472L1.35471 62.9164C1.33508 62.2802 1.3252 61.6414 1.3252 61.0001C1.3252 60.3589 1.33508 59.7201 1.35471 59.0839L0.355188 59.0531C0.395383 57.7502 0.475772 56.4577 0.595121 55.177L1.59081 55.2698C1.70981 53.9928 1.86818 52.7276 2.06464 51.4757L1.07673 51.3207C1.27872 50.0335 1.52032 48.7601 1.80023 47.5016L2.77637 47.7187C3.05431 46.4691 3.37061 45.2346 3.72394 44.0166L2.76354 43.738C3.12587 42.4889 3.52652 41.2569 3.96407 40.0433L4.9048 40.3825C5.33867 39.1791 5.80944 37.9942 6.31567 36.8292L5.39852 36.4306C5.91636 35.2389 6.47071 34.0677 7.06012 32.9185L7.94992 33.3748C8.53283 32.2383 9.15058 31.1236 9.80172 30.0323L8.94297 29.5199C9.60836 28.4048 10.3081 27.3136 11.0405 26.248L11.8646 26.8145C12.5876 25.7627 13.343 24.7363 14.1293 23.7369L13.3434 23.1185C14.1456 22.0989 14.9794 21.1069 15.8434 20.1439L16.5878 20.8117C17.4394 19.8624 18.3209 18.942 19.2305 18.0519L18.5311 17.3371C19.4576 16.4305 20.4129 15.5548 21.3955 14.7117L22.0467 15.4706C23.0135 14.641 24.0071 13.8435 25.0259 13.0797L24.4261 12.2796C25.4623 11.5026 26.5244 10.7599 27.6105 10.0529L28.156 10.891C29.2225 10.1969 30.3126 9.53794 31.4248 8.9157L30.9366 8.04299C32.0654 7.41142 33.2168 6.81698 34.389 6.26127L34.8173 7.16488C35.9653 6.62068 37.1335 6.1143 38.3206 5.6473L37.9546 4.71672C39.1571 4.24366 40.3786 3.81026 41.6177 3.41808L41.9194 4.37147C43.128 3.98894 44.3535 3.64634 45.5945 3.34515L45.3587 2.37336C46.6121 2.06916 47.8811 1.80645 49.1642 1.58673L49.333 2.57238C50.5812 2.35864 51.843 2.18629 53.1171 2.05676L53.016 1.06189C54.2957 0.931786 55.5875 0.844125 56.89 0.800289L56.9237 1.79972C57.5588 1.77835 58.1966 1.76758 58.8368 1.76758C59.4771 1.76758 60.1148 1.77835 60.75 1.79972L60.7836 0.800289C62.0862 0.844124 63.378 0.931785 64.6577 1.06189L64.5565 2.05676C65.8306 2.18629 67.0924 2.35864 68.3406 2.57238L68.5094 1.58673C69.7925 1.80645 71.0615 2.06916 72.3149 2.37336L72.0791 3.34515C73.3201 3.64634 74.5457 3.98894 75.7542 4.37147L76.056 3.41808C77.2951 3.81026 78.5166 4.24366 79.7191 4.71672L79.353 5.6473C80.5401 6.1143 81.7084 6.62067 82.8563 7.16487L83.2847 6.26127C84.4569 6.81698 85.6082 7.41142 86.7371 8.04299L86.2488 8.91569C87.361 9.53794 88.4511 10.1969 89.5176 10.891L90.0631 10.0529C91.1493 10.7599 92.2113 11.5026 93.2476 12.2796L92.6477 13.0797C93.6665 13.8435 94.6601 14.641 95.6269 15.4706L96.2781 14.7117C97.2607 15.5548 98.216 16.4305 99.1425 17.3371L98.4431 18.0519C99.3528 18.942 100.234 19.8624 101.086 20.8117L101.83 20.1438C102.694 21.1068 103.528 22.0989 104.33 23.1185L103.544 23.7369C104.331 24.7363 105.086 25.7627 105.809 26.8145L106.633 26.248C107.366 27.3136 108.065 28.4047 108.731 29.5199L107.872 30.0323C108.523 31.1236 109.141 32.2382 109.724 33.3748L110.614 32.9185C111.203 34.0677 111.757 35.2389 112.275 36.4306L111.358 36.8291C111.864 37.9941 112.335 39.1791 112.769 40.3825L113.71 40.0433C114.147 41.2569 114.548 42.4889 114.91 43.738L113.95 44.0166C114.303 45.2346 114.619 46.4691 114.897 47.7187L115.873 47.5016C116.153 48.76 116.395 50.0335 116.597 51.3207L115.609 51.4757C115.805 52.7276 115.964 53.9927 116.083 55.2698L117.079 55.177Z" stroke="#8796F8" stroke-width="2" stroke-dasharray="4 4"/>
</svg>
