<svg width="754" height="100" viewBox="0 0 754 100" fill="none" xmlns="http://www.w3.org/2000/svg">
<path d="M26.5112 21.376C26.4632 22.456 26.4392 23.464 26.4392 24.4C26.4392 25.336 26.4632 26.344 26.5112 27.424C26.5832 29.416 27.1832 31.036 28.3112 32.284C29.4632 33.508 31.1072 34.12 33.2432 34.12C34.3952 34.12 35.3672 33.976 36.1592 33.688C36.9512 33.4 37.5992 33.028 38.1032 32.572C38.6312 32.116 39.0272 31.6 39.2912 31.024C39.5792 30.424 39.7952 29.824 39.9392 29.224C39.9872 28.96 40.1072 28.768 40.2992 28.648C40.4912 28.504 40.6832 28.432 40.8752 28.432H42.5312C42.7472 28.432 42.9272 28.516 43.0712 28.684C43.2392 28.828 43.3232 29.008 43.3232 29.224C43.2992 30.016 43.0952 30.88 42.7112 31.816C42.3272 32.752 41.7272 33.64 40.9112 34.48C40.1192 35.296 39.0872 35.98 37.8152 36.532C36.5672 37.084 35.0432 37.36 33.2432 37.36C31.6832 37.36 30.2912 37.12 29.0672 36.64C27.8432 36.136 26.7872 35.452 25.8992 34.588C25.0352 33.724 24.3632 32.704 23.8832 31.528C23.4032 30.328 23.1392 29.02 23.0912 27.604C23.0192 25.468 23.0192 23.332 23.0912 21.196C23.1392 19.804 23.4032 18.508 23.8832 17.308C24.3632 16.108 25.0352 15.076 25.8992 14.212C26.7872 13.348 27.8432 12.676 29.0672 12.196C30.2912 11.692 31.6832 11.44 33.2432 11.44C35.0432 11.44 36.5672 11.716 37.8152 12.268C39.0872 12.82 40.1192 13.516 40.9112 14.356C41.7272 15.172 42.3272 16.048 42.7112 16.984C43.0952 17.92 43.2992 18.784 43.3232 19.576C43.3232 19.792 43.2392 19.984 43.0712 20.152C42.9272 20.296 42.7472 20.368 42.5312 20.368H40.8752C40.6832 20.368 40.4912 20.308 40.2992 20.188C40.1072 20.044 39.9872 19.84 39.9392 19.576C39.7952 18.976 39.5792 18.388 39.2912 17.812C39.0272 17.212 38.6312 16.684 38.1032 16.228C37.5992 15.772 36.9512 15.4 36.1592 15.112C35.3672 14.824 34.3952 14.68 33.2432 14.68C31.1072 14.68 29.4632 15.304 28.3112 16.552C27.1832 17.776 26.5832 19.384 26.5112 21.376ZM54.5909 17.92C55.8869 17.92 57.0389 18.124 58.0469 18.532C59.0549 18.916 59.9189 19.456 60.6389 20.152C61.3589 20.848 61.9229 21.7 62.3309 22.708C62.7629 23.692 63.0269 24.772 63.1229 25.948C63.1469 26.164 63.1589 26.428 63.1589 26.74C63.1589 27.028 63.1589 27.34 63.1589 27.676C63.1589 27.988 63.1589 28.3 63.1589 28.612C63.1589 28.9 63.1469 29.14 63.1229 29.332C63.0029 30.532 62.7389 31.624 62.3309 32.608C61.9229 33.592 61.3589 34.432 60.6389 35.128C59.9189 35.824 59.0549 36.376 58.0469 36.784C57.0389 37.168 55.8869 37.36 54.5909 37.36C53.2949 37.36 52.1429 37.168 51.1349 36.784C50.1269 36.376 49.2629 35.824 48.5429 35.128C47.8229 34.432 47.2469 33.592 46.8149 32.608C46.4069 31.624 46.1549 30.532 46.0589 29.332C46.0349 29.14 46.0109 28.9 45.9869 28.612C45.9869 28.3 45.9869 27.988 45.9869 27.676C45.9869 27.34 45.9869 27.028 45.9869 26.74C46.0109 26.428 46.0349 26.164 46.0589 25.948C46.1549 24.772 46.4069 23.692 46.8149 22.708C47.2469 21.7 47.8229 20.848 48.5429 20.152C49.2629 19.456 50.1269 18.916 51.1349 18.532C52.1429 18.124 53.2949 17.92 54.5909 17.92ZM59.8469 29.152C59.8949 28.744 59.9189 28.252 59.9189 27.676C59.9189 27.076 59.8949 26.56 59.8469 26.128C59.7749 25.408 59.6189 24.736 59.3789 24.112C59.1389 23.488 58.8029 22.948 58.3709 22.492C57.9389 22.036 57.4109 21.676 56.7869 21.412C56.1629 21.148 55.4309 21.016 54.5909 21.016C53.7509 21.016 53.0189 21.148 52.3949 21.412C51.7709 21.676 51.2429 22.036 50.8109 22.492C50.3789 22.948 50.0429 23.488 49.8029 24.112C49.5629 24.736 49.4069 25.408 49.3349 26.128C49.2869 26.56 49.2629 27.076 49.2629 27.676C49.2629 28.252 49.2869 28.744 49.3349 29.152C49.4069 29.872 49.5629 30.544 49.8029 31.168C50.0429 31.792 50.3789 32.332 50.8109 32.788C51.2429 33.244 51.7709 33.604 52.3949 33.868C53.0189 34.132 53.7509 34.264 54.5909 34.264C55.4309 34.264 56.1629 34.132 56.7869 33.868C57.4109 33.604 57.9389 33.244 58.3709 32.788C58.8029 32.332 59.1389 31.792 59.3789 31.168C59.6189 30.544 59.7749 29.872 59.8469 29.152ZM83.6122 36.028C83.6122 36.292 83.5162 36.52 83.3242 36.712C83.1322 36.904 82.9042 37 82.6402 37H81.3082C81.0442 37 80.8162 36.904 80.6242 36.712C80.4322 36.52 80.3362 36.292 80.3362 36.028V26.524C80.3362 24.676 79.8922 23.296 79.0042 22.384C78.1162 21.472 76.8802 21.016 75.2962 21.016C73.7842 21.016 72.5602 21.472 71.6242 22.384C70.7122 23.296 70.2562 24.676 70.2562 26.524V36.028C70.2562 36.292 70.1602 36.52 69.9682 36.712C69.7762 36.904 69.5482 37 69.2842 37H67.9522C67.6882 37 67.4602 36.904 67.2682 36.712C67.0762 36.52 66.9802 36.292 66.9802 36.028V19.252C66.9802 18.988 67.0762 18.76 67.2682 18.568C67.4602 18.376 67.6882 18.28 67.9522 18.28H69.2842C69.5482 18.28 69.7762 18.376 69.9682 18.568C70.1602 18.76 70.2562 18.988 70.2562 19.252V20.368C70.7122 19.768 71.3842 19.216 72.2722 18.712C73.1842 18.184 74.3722 17.92 75.8362 17.92C76.9642 17.92 78.0082 18.112 78.9682 18.496C79.9282 18.856 80.7442 19.384 81.4162 20.08C82.1122 20.752 82.6522 21.592 83.0362 22.6C83.4202 23.608 83.6122 24.736 83.6122 25.984V36.028ZM92.7422 30.7C92.7422 31.156 92.7782 31.588 92.8502 31.996C92.9462 32.38 93.1022 32.716 93.3182 33.004C93.5342 33.292 93.8342 33.52 94.2182 33.688C94.6262 33.832 95.1422 33.904 95.7662 33.904H97.6742C97.9382 33.904 98.1662 34 98.3582 34.192C98.5502 34.384 98.6462 34.612 98.6462 34.876V36.028C98.6462 36.292 98.5502 36.52 98.3582 36.712C98.1662 36.904 97.9382 37 97.6742 37H95.4062C93.3182 37 91.8062 36.46 90.8702 35.38C89.9342 34.3 89.4662 32.74 89.4662 30.7V21.376H86.8022C86.5382 21.376 86.3102 21.28 86.1182 21.088C85.9262 20.896 85.8302 20.668 85.8302 20.404V19.252C85.8302 18.988 85.9262 18.76 86.1182 18.568C86.3102 18.376 86.5382 18.28 86.8022 18.28H89.4662V12.412C89.4662 12.148 89.5622 11.92 89.7542 11.728C89.9462 11.536 90.1742 11.44 90.4382 11.44H91.7702C92.0342 11.44 92.2622 11.536 92.4542 11.728C92.6462 11.92 92.7422 12.148 92.7422 12.412V18.28H97.3142C97.5782 18.28 97.8062 18.376 97.9982 18.568C98.1902 18.76 98.2862 18.988 98.2862 19.252V20.404C98.2862 20.668 98.1902 20.896 97.9982 21.088C97.8062 21.28 97.5782 21.376 97.3142 21.376H92.7422V30.7ZM100.208 32.284C100.208 31.324 100.4 30.484 100.784 29.764C101.168 29.044 101.696 28.432 102.368 27.928C103.04 27.424 103.82 27.016 104.708 26.704C105.62 26.392 106.58 26.152 107.588 25.984L112.664 25.156V24.688C112.664 23.464 112.256 22.552 111.44 21.952C110.648 21.328 109.652 21.016 108.452 21.016C107.396 21.016 106.592 21.208 106.04 21.592C105.512 21.976 105.056 22.432 104.672 22.96C104.528 23.152 104.372 23.284 104.204 23.356C104.036 23.428 103.808 23.464 103.52 23.464H102.44C102.176 23.464 101.936 23.368 101.72 23.176C101.528 22.984 101.444 22.756 101.468 22.492C101.516 21.964 101.72 21.424 102.08 20.872C102.464 20.32 102.968 19.828 103.592 19.396C104.24 18.964 104.972 18.616 105.788 18.352C106.628 18.064 107.516 17.92 108.452 17.92C109.532 17.92 110.528 18.076 111.44 18.388C112.376 18.7 113.168 19.156 113.816 19.756C114.488 20.356 115.004 21.1 115.364 21.988C115.748 22.876 115.94 23.896 115.94 25.048V36.028C115.94 36.292 115.844 36.52 115.652 36.712C115.46 36.904 115.232 37 114.968 37H113.636C113.372 37 113.144 36.904 112.952 36.712C112.76 36.52 112.664 36.292 112.664 36.028V34.552C112.448 35.008 112.112 35.416 111.656 35.776C111.2 36.112 110.672 36.4 110.072 36.64C109.496 36.88 108.884 37.06 108.236 37.18C107.612 37.3 107.024 37.36 106.472 37.36C105.536 37.36 104.672 37.228 103.88 36.964C103.112 36.7 102.452 36.352 101.9 35.92C101.372 35.464 100.952 34.924 100.64 34.3C100.352 33.676 100.208 33.004 100.208 32.284ZM106.832 34.264C107.696 34.264 108.488 34.132 109.208 33.868C109.928 33.604 110.54 33.244 111.044 32.788C111.572 32.308 111.968 31.744 112.232 31.096C112.52 30.448 112.664 29.728 112.664 28.936V28.036L108.416 28.72C106.904 28.96 105.704 29.344 104.816 29.872C103.928 30.4 103.484 31.084 103.484 31.924C103.484 32.188 103.544 32.452 103.664 32.716C103.784 32.98 103.976 33.232 104.24 33.472C104.504 33.712 104.84 33.904 105.248 34.048C105.68 34.192 106.208 34.264 106.832 34.264ZM122.885 28.9C122.981 29.86 123.185 30.676 123.497 31.348C123.833 32.02 124.229 32.572 124.685 33.004C125.165 33.436 125.693 33.76 126.269 33.976C126.845 34.168 127.433 34.264 128.033 34.264C129.185 34.264 130.169 34.048 130.985 33.616C131.801 33.184 132.437 32.464 132.893 31.456C133.061 31.072 133.229 30.82 133.397 30.7C133.589 30.556 133.817 30.484 134.081 30.484H135.161C135.425 30.484 135.653 30.58 135.845 30.772C136.061 30.964 136.157 31.192 136.133 31.456C136.109 32.032 135.917 32.668 135.557 33.364C135.221 34.036 134.705 34.672 134.009 35.272C133.337 35.848 132.497 36.34 131.489 36.748C130.505 37.156 129.353 37.36 128.033 37.36C126.713 37.36 125.537 37.144 124.505 36.712C123.497 36.28 122.633 35.692 121.913 34.948C121.217 34.204 120.665 33.328 120.257 32.32C119.873 31.312 119.657 30.232 119.609 29.08C119.585 28.696 119.561 28.228 119.537 27.676C119.537 27.1 119.561 26.608 119.609 26.2C119.705 25.048 119.945 23.968 120.329 22.96C120.737 21.952 121.289 21.076 121.985 20.332C122.681 19.588 123.533 19 124.541 18.568C125.549 18.136 126.713 17.92 128.033 17.92C129.353 17.92 130.505 18.124 131.489 18.532C132.497 18.94 133.337 19.444 134.009 20.044C134.705 20.62 135.221 21.256 135.557 21.952C135.917 22.624 136.109 23.248 136.133 23.824C136.157 24.088 136.061 24.316 135.845 24.508C135.653 24.7 135.425 24.796 135.161 24.796H134.081C133.817 24.796 133.589 24.736 133.397 24.616C133.229 24.472 133.061 24.208 132.893 23.824C132.437 22.816 131.801 22.096 130.985 21.664C130.169 21.232 129.185 21.016 128.033 21.016C127.433 21.016 126.833 21.124 126.233 21.34C125.657 21.532 125.129 21.844 124.649 22.276C124.193 22.708 123.797 23.26 123.461 23.932C123.149 24.604 122.957 25.42 122.885 26.38C122.813 27.268 122.813 28.108 122.885 28.9ZM144.617 30.7C144.617 31.156 144.653 31.588 144.725 31.996C144.821 32.38 144.977 32.716 145.193 33.004C145.409 33.292 145.709 33.52 146.093 33.688C146.501 33.832 147.017 33.904 147.641 33.904H149.549C149.813 33.904 150.041 34 150.233 34.192C150.425 34.384 150.521 34.612 150.521 34.876V36.028C150.521 36.292 150.425 36.52 150.233 36.712C150.041 36.904 149.813 37 149.549 37H147.281C145.193 37 143.681 36.46 142.745 35.38C141.809 34.3 141.341 32.74 141.341 30.7V21.376H138.677C138.413 21.376 138.185 21.28 137.993 21.088C137.801 20.896 137.705 20.668 137.705 20.404V19.252C137.705 18.988 137.801 18.76 137.993 18.568C138.185 18.376 138.413 18.28 138.677 18.28H141.341V12.412C141.341 12.148 141.437 11.92 141.629 11.728C141.821 11.536 142.049 11.44 142.313 11.44H143.645C143.909 11.44 144.137 11.536 144.329 11.728C144.521 11.92 144.617 12.148 144.617 12.412V18.28H149.189C149.453 18.28 149.681 18.376 149.873 18.568C150.065 18.76 150.161 18.988 150.161 19.252V20.404C150.161 20.668 150.065 20.896 149.873 21.088C149.681 21.28 149.453 21.376 149.189 21.376H144.617V30.7ZM161.304 19.252C161.304 18.988 161.4 18.76 161.592 18.568C161.784 18.376 162.012 18.28 162.276 18.28H163.608C163.872 18.28 164.1 18.376 164.292 18.568C164.484 18.76 164.58 18.988 164.58 19.252V28.756C164.58 30.604 164.988 31.984 165.804 32.896C166.644 33.808 167.856 34.264 169.44 34.264C170.952 34.264 172.14 33.808 173.004 32.896C173.868 31.984 174.3 30.604 174.3 28.756V19.252C174.3 18.988 174.396 18.76 174.588 18.568C174.78 18.376 175.008 18.28 175.272 18.28H176.604C176.868 18.28 177.096 18.376 177.288 18.568C177.48 18.76 177.576 18.988 177.576 19.252V36.028C177.576 36.292 177.48 36.52 177.288 36.712C177.096 36.904 176.868 37 176.604 37H175.272C175.008 37 174.78 36.904 174.588 36.712C174.396 36.52 174.3 36.292 174.3 36.028V34.912C173.844 35.512 173.196 36.076 172.356 36.604C171.516 37.108 170.364 37.36 168.9 37.36C167.772 37.36 166.74 37.18 165.804 36.82C164.868 36.436 164.064 35.908 163.392 35.236C162.72 34.54 162.204 33.7 161.844 32.716C161.484 31.708 161.304 30.568 161.304 29.296V19.252ZM192.901 31.816C192.901 31.36 192.769 30.988 192.505 30.7C192.265 30.388 191.893 30.124 191.389 29.908C190.885 29.692 190.237 29.488 189.445 29.296C188.677 29.104 187.777 28.9 186.745 28.684C184.801 28.276 183.433 27.604 182.641 26.668C181.873 25.708 181.489 24.592 181.489 23.32C181.489 22.6 181.633 21.916 181.921 21.268C182.209 20.62 182.641 20.044 183.217 19.54C183.793 19.036 184.513 18.64 185.377 18.352C186.265 18.064 187.297 17.92 188.473 17.92C189.649 17.92 190.669 18.052 191.533 18.316C192.421 18.58 193.165 18.916 193.765 19.324C194.365 19.732 194.821 20.176 195.133 20.656C195.445 21.112 195.613 21.556 195.637 21.988C195.661 22.252 195.565 22.48 195.349 22.672C195.157 22.864 194.929 22.96 194.665 22.96H193.477C193.333 22.96 193.153 22.936 192.937 22.888C192.745 22.816 192.565 22.672 192.397 22.456C192.085 22.048 191.617 21.712 190.993 21.448C190.393 21.16 189.553 21.016 188.473 21.016C187.369 21.016 186.469 21.22 185.773 21.628C185.101 22.036 184.765 22.6 184.765 23.32C184.765 23.776 184.861 24.148 185.053 24.436C185.245 24.7 185.557 24.94 185.989 25.156C186.421 25.348 186.985 25.528 187.681 25.696C188.401 25.864 189.289 26.068 190.345 26.308C191.449 26.548 192.373 26.86 193.117 27.244C193.861 27.604 194.461 28.024 194.917 28.504C195.373 28.96 195.697 29.476 195.889 30.052C196.081 30.604 196.177 31.192 196.177 31.816C196.177 32.536 195.997 33.232 195.637 33.904C195.301 34.576 194.809 35.164 194.161 35.668C193.513 36.172 192.721 36.58 191.785 36.892C190.873 37.204 189.829 37.36 188.653 37.36C187.477 37.36 186.433 37.216 185.521 36.928C184.609 36.64 183.829 36.292 183.181 35.884C182.533 35.452 182.029 34.996 181.669 34.516C181.333 34.012 181.153 33.544 181.129 33.112C181.105 32.848 181.189 32.62 181.381 32.428C181.573 32.236 181.813 32.14 182.101 32.14H183.397C183.541 32.14 183.709 32.164 183.901 32.212C184.093 32.236 184.273 32.368 184.441 32.608C184.825 33.136 185.353 33.544 186.025 33.832C186.697 34.12 187.573 34.264 188.653 34.264C189.181 34.264 189.697 34.204 190.201 34.084C190.729 33.964 191.185 33.796 191.569 33.58C191.977 33.364 192.301 33.112 192.541 32.824C192.781 32.512 192.901 32.176 192.901 31.816ZM211.927 30.7C211.927 31.156 211.963 31.588 212.035 31.996C212.131 32.38 212.287 32.716 212.503 33.004C212.719 33.292 213.019 33.52 213.403 33.688C213.811 33.832 214.327 33.904 214.951 33.904H216.859C217.123 33.904 217.351 34 217.543 34.192C217.735 34.384 217.831 34.612 217.831 34.876V36.028C217.831 36.292 217.735 36.52 217.543 36.712C217.351 36.904 217.123 37 216.859 37H214.591C212.503 37 210.991 36.46 210.055 35.38C209.119 34.3 208.651 32.74 208.651 30.7V21.376H205.987C205.723 21.376 205.495 21.28 205.303 21.088C205.111 20.896 205.015 20.668 205.015 20.404V19.252C205.015 18.988 205.111 18.76 205.303 18.568C205.495 18.376 205.723 18.28 205.987 18.28H208.651V12.412C208.651 12.148 208.747 11.92 208.939 11.728C209.131 11.536 209.359 11.44 209.623 11.44H210.955C211.219 11.44 211.447 11.536 211.639 11.728C211.831 11.92 211.927 12.148 211.927 12.412V18.28H216.499C216.763 18.28 216.991 18.376 217.183 18.568C217.375 18.76 217.471 18.988 217.471 19.252V20.404C217.471 20.668 217.375 20.896 217.183 21.088C216.991 21.28 216.763 21.376 216.499 21.376H211.927V30.7ZM228.394 17.92C229.69 17.92 230.842 18.124 231.85 18.532C232.858 18.916 233.722 19.456 234.442 20.152C235.162 20.848 235.726 21.7 236.134 22.708C236.566 23.692 236.83 24.772 236.926 25.948C236.95 26.164 236.962 26.428 236.962 26.74C236.962 27.028 236.962 27.34 236.962 27.676C236.962 27.988 236.962 28.3 236.962 28.612C236.962 28.9 236.95 29.14 236.926 29.332C236.806 30.532 236.542 31.624 236.134 32.608C235.726 33.592 235.162 34.432 234.442 35.128C233.722 35.824 232.858 36.376 231.85 36.784C230.842 37.168 229.69 37.36 228.394 37.36C227.098 37.36 225.946 37.168 224.938 36.784C223.93 36.376 223.066 35.824 222.346 35.128C221.626 34.432 221.05 33.592 220.618 32.608C220.21 31.624 219.958 30.532 219.862 29.332C219.838 29.14 219.814 28.9 219.79 28.612C219.79 28.3 219.79 27.988 219.79 27.676C219.79 27.34 219.79 27.028 219.79 26.74C219.814 26.428 219.838 26.164 219.862 25.948C219.958 24.772 220.21 23.692 220.618 22.708C221.05 21.7 221.626 20.848 222.346 20.152C223.066 19.456 223.93 18.916 224.938 18.532C225.946 18.124 227.098 17.92 228.394 17.92ZM233.65 29.152C233.698 28.744 233.722 28.252 233.722 27.676C233.722 27.076 233.698 26.56 233.65 26.128C233.578 25.408 233.422 24.736 233.182 24.112C232.942 23.488 232.606 22.948 232.174 22.492C231.742 22.036 231.214 21.676 230.59 21.412C229.966 21.148 229.234 21.016 228.394 21.016C227.554 21.016 226.822 21.148 226.198 21.412C225.574 21.676 225.046 22.036 224.614 22.492C224.182 22.948 223.846 23.488 223.606 24.112C223.366 24.736 223.21 25.408 223.138 26.128C223.09 26.56 223.066 27.076 223.066 27.676C223.066 28.252 223.09 28.744 223.138 29.152C223.21 29.872 223.366 30.544 223.606 31.168C223.846 31.792 224.182 32.332 224.614 32.788C225.046 33.244 225.574 33.604 226.198 33.868C226.822 34.132 227.554 34.264 228.394 34.264C229.234 34.264 229.966 34.132 230.59 33.868C231.214 33.604 231.742 33.244 232.174 32.788C232.606 32.332 232.942 31.792 233.182 31.168C233.422 30.544 233.578 29.872 233.65 29.152ZM256.124 17.92C257.612 17.92 258.8 18.184 259.688 18.712C260.576 19.216 261.248 19.768 261.704 20.368V12.412C261.704 12.148 261.8 11.92 261.992 11.728C262.184 11.536 262.412 11.44 262.676 11.44H264.008C264.272 11.44 264.5 11.536 264.692 11.728C264.884 11.92 264.98 12.148 264.98 12.412V36.028C264.98 36.292 264.884 36.52 264.692 36.712C264.5 36.904 264.272 37 264.008 37H262.676C262.412 37 262.184 36.904 261.992 36.712C261.8 36.52 261.704 36.292 261.704 36.028V34.912C261.224 35.56 260.54 36.136 259.652 36.64C258.764 37.12 257.588 37.36 256.124 37.36C254.996 37.36 253.94 37.168 252.956 36.784C251.996 36.376 251.156 35.8 250.436 35.056C249.716 34.312 249.14 33.412 248.708 32.356C248.276 31.3 248.024 30.112 247.952 28.792C247.928 28.432 247.916 28.048 247.916 27.64C247.916 27.208 247.928 26.812 247.952 26.452C248.024 25.132 248.276 23.944 248.708 22.888C249.14 21.832 249.716 20.944 250.436 20.224C251.156 19.48 251.996 18.916 252.956 18.532C253.94 18.124 254.996 17.92 256.124 17.92ZM261.704 29.188C261.728 28.828 261.74 28.36 261.74 27.784C261.74 27.184 261.728 26.704 261.704 26.344C261.632 24.64 261.116 23.332 260.156 22.42C259.22 21.484 257.996 21.016 256.484 21.016C254.9 21.016 253.652 21.52 252.74 22.528C251.828 23.536 251.324 24.904 251.228 26.632C251.204 27.304 251.204 27.976 251.228 28.648C251.324 30.376 251.828 31.744 252.74 32.752C253.652 33.76 254.9 34.264 256.484 34.264C257.972 34.264 259.196 33.808 260.156 32.896C261.116 31.984 261.632 30.748 261.704 29.188ZM272.924 36.028C272.924 36.292 272.828 36.52 272.636 36.712C272.444 36.904 272.216 37 271.952 37H270.62C270.356 37 270.128 36.904 269.936 36.712C269.744 36.52 269.648 36.292 269.648 36.028V19.252C269.648 18.988 269.744 18.76 269.936 18.568C270.128 18.376 270.356 18.28 270.62 18.28H271.952C272.216 18.28 272.444 18.376 272.636 18.568C272.828 18.76 272.924 18.988 272.924 19.252V36.028ZM273.284 14.464C273.284 14.728 273.188 14.956 272.996 15.148C272.804 15.34 272.576 15.436 272.312 15.436H270.26C269.996 15.436 269.768 15.34 269.576 15.148C269.384 14.956 269.288 14.728 269.288 14.464V12.412C269.288 12.148 269.384 11.92 269.576 11.728C269.768 11.536 269.996 11.44 270.26 11.44H272.312C272.576 11.44 272.804 11.536 272.996 11.728C273.188 11.92 273.284 12.148 273.284 12.412V14.464ZM288.267 31.816C288.267 31.36 288.135 30.988 287.871 30.7C287.631 30.388 287.259 30.124 286.755 29.908C286.251 29.692 285.603 29.488 284.811 29.296C284.043 29.104 283.143 28.9 282.111 28.684C280.167 28.276 278.799 27.604 278.007 26.668C277.239 25.708 276.855 24.592 276.855 23.32C276.855 22.6 276.999 21.916 277.287 21.268C277.575 20.62 278.007 20.044 278.583 19.54C279.159 19.036 279.879 18.64 280.743 18.352C281.631 18.064 282.663 17.92 283.839 17.92C285.015 17.92 286.035 18.052 286.899 18.316C287.787 18.58 288.531 18.916 289.131 19.324C289.731 19.732 290.187 20.176 290.499 20.656C290.811 21.112 290.979 21.556 291.003 21.988C291.027 22.252 290.931 22.48 290.715 22.672C290.523 22.864 290.295 22.96 290.031 22.96H288.843C288.699 22.96 288.519 22.936 288.303 22.888C288.111 22.816 287.931 22.672 287.763 22.456C287.451 22.048 286.983 21.712 286.359 21.448C285.759 21.16 284.919 21.016 283.839 21.016C282.735 21.016 281.835 21.22 281.139 21.628C280.467 22.036 280.131 22.6 280.131 23.32C280.131 23.776 280.227 24.148 280.419 24.436C280.611 24.7 280.923 24.94 281.355 25.156C281.787 25.348 282.351 25.528 283.047 25.696C283.767 25.864 284.655 26.068 285.711 26.308C286.815 26.548 287.739 26.86 288.483 27.244C289.227 27.604 289.827 28.024 290.283 28.504C290.739 28.96 291.063 29.476 291.255 30.052C291.447 30.604 291.543 31.192 291.543 31.816C291.543 32.536 291.363 33.232 291.003 33.904C290.667 34.576 290.175 35.164 289.527 35.668C288.879 36.172 288.087 36.58 287.151 36.892C286.239 37.204 285.195 37.36 284.019 37.36C282.843 37.36 281.799 37.216 280.887 36.928C279.975 36.64 279.195 36.292 278.547 35.884C277.899 35.452 277.395 34.996 277.035 34.516C276.699 34.012 276.519 33.544 276.495 33.112C276.471 32.848 276.555 32.62 276.747 32.428C276.939 32.236 277.179 32.14 277.467 32.14H278.763C278.907 32.14 279.075 32.164 279.267 32.212C279.459 32.236 279.639 32.368 279.807 32.608C280.191 33.136 280.719 33.544 281.391 33.832C282.063 34.12 282.939 34.264 284.019 34.264C284.547 34.264 285.063 34.204 285.567 34.084C286.095 33.964 286.551 33.796 286.935 33.58C287.343 33.364 287.667 33.112 287.907 32.824C288.147 32.512 288.267 32.176 288.267 31.816ZM297.514 28.9C297.61 29.86 297.814 30.676 298.126 31.348C298.462 32.02 298.858 32.572 299.314 33.004C299.794 33.436 300.322 33.76 300.898 33.976C301.474 34.168 302.062 34.264 302.662 34.264C303.814 34.264 304.798 34.048 305.614 33.616C306.43 33.184 307.066 32.464 307.522 31.456C307.69 31.072 307.858 30.82 308.026 30.7C308.218 30.556 308.446 30.484 308.71 30.484H309.79C310.054 30.484 310.282 30.58 310.474 30.772C310.69 30.964 310.786 31.192 310.762 31.456C310.738 32.032 310.546 32.668 310.186 33.364C309.85 34.036 309.334 34.672 308.638 35.272C307.966 35.848 307.126 36.34 306.118 36.748C305.134 37.156 303.982 37.36 302.662 37.36C301.342 37.36 300.166 37.144 299.134 36.712C298.126 36.28 297.262 35.692 296.542 34.948C295.846 34.204 295.294 33.328 294.886 32.32C294.502 31.312 294.286 30.232 294.238 29.08C294.214 28.696 294.19 28.228 294.166 27.676C294.166 27.1 294.19 26.608 294.238 26.2C294.334 25.048 294.574 23.968 294.958 22.96C295.366 21.952 295.918 21.076 296.614 20.332C297.31 19.588 298.162 19 299.17 18.568C300.178 18.136 301.342 17.92 302.662 17.92C303.982 17.92 305.134 18.124 306.118 18.532C307.126 18.94 307.966 19.444 308.638 20.044C309.334 20.62 309.85 21.256 310.186 21.952C310.546 22.624 310.738 23.248 310.762 23.824C310.786 24.088 310.69 24.316 310.474 24.508C310.282 24.7 310.054 24.796 309.79 24.796H308.71C308.446 24.796 308.218 24.736 308.026 24.616C307.858 24.472 307.69 24.208 307.522 23.824C307.066 22.816 306.43 22.096 305.614 21.664C304.798 21.232 303.814 21.016 302.662 21.016C302.062 21.016 301.462 21.124 300.862 21.34C300.286 21.532 299.758 21.844 299.278 22.276C298.822 22.708 298.426 23.26 298.09 23.932C297.778 24.604 297.586 25.42 297.514 26.38C297.442 27.268 297.442 28.108 297.514 28.9ZM314.171 19.252C314.171 18.988 314.267 18.76 314.459 18.568C314.651 18.376 314.879 18.28 315.143 18.28H316.475C316.739 18.28 316.967 18.376 317.159 18.568C317.351 18.76 317.447 18.988 317.447 19.252V28.756C317.447 30.604 317.855 31.984 318.671 32.896C319.511 33.808 320.723 34.264 322.307 34.264C323.819 34.264 325.007 33.808 325.871 32.896C326.735 31.984 327.167 30.604 327.167 28.756V19.252C327.167 18.988 327.263 18.76 327.455 18.568C327.647 18.376 327.875 18.28 328.139 18.28H329.471C329.735 18.28 329.963 18.376 330.155 18.568C330.347 18.76 330.443 18.988 330.443 19.252V36.028C330.443 36.292 330.347 36.52 330.155 36.712C329.963 36.904 329.735 37 329.471 37H328.139C327.875 37 327.647 36.904 327.455 36.712C327.263 36.52 327.167 36.292 327.167 36.028V34.912C326.711 35.512 326.063 36.076 325.223 36.604C324.383 37.108 323.231 37.36 321.767 37.36C320.639 37.36 319.607 37.18 318.671 36.82C317.735 36.436 316.931 35.908 316.259 35.236C315.587 34.54 315.071 33.7 314.711 32.716C314.351 31.708 314.171 30.568 314.171 29.296V19.252ZM345.767 31.816C345.767 31.36 345.635 30.988 345.371 30.7C345.131 30.388 344.759 30.124 344.255 29.908C343.751 29.692 343.103 29.488 342.311 29.296C341.543 29.104 340.643 28.9 339.611 28.684C337.667 28.276 336.299 27.604 335.507 26.668C334.739 25.708 334.355 24.592 334.355 23.32C334.355 22.6 334.499 21.916 334.787 21.268C335.075 20.62 335.507 20.044 336.083 19.54C336.659 19.036 337.379 18.64 338.243 18.352C339.131 18.064 340.163 17.92 341.339 17.92C342.515 17.92 343.535 18.052 344.399 18.316C345.287 18.58 346.031 18.916 346.631 19.324C347.231 19.732 347.687 20.176 347.999 20.656C348.311 21.112 348.479 21.556 348.503 21.988C348.527 22.252 348.431 22.48 348.215 22.672C348.023 22.864 347.795 22.96 347.531 22.96H346.343C346.199 22.96 346.019 22.936 345.803 22.888C345.611 22.816 345.431 22.672 345.263 22.456C344.951 22.048 344.483 21.712 343.859 21.448C343.259 21.16 342.419 21.016 341.339 21.016C340.235 21.016 339.335 21.22 338.639 21.628C337.967 22.036 337.631 22.6 337.631 23.32C337.631 23.776 337.727 24.148 337.919 24.436C338.111 24.7 338.423 24.94 338.855 25.156C339.287 25.348 339.851 25.528 340.547 25.696C341.267 25.864 342.155 26.068 343.211 26.308C344.315 26.548 345.239 26.86 345.983 27.244C346.727 27.604 347.327 28.024 347.783 28.504C348.239 28.96 348.563 29.476 348.755 30.052C348.947 30.604 349.043 31.192 349.043 31.816C349.043 32.536 348.863 33.232 348.503 33.904C348.167 34.576 347.675 35.164 347.027 35.668C346.379 36.172 345.587 36.58 344.651 36.892C343.739 37.204 342.695 37.36 341.519 37.36C340.343 37.36 339.299 37.216 338.387 36.928C337.475 36.64 336.695 36.292 336.047 35.884C335.399 35.452 334.895 34.996 334.535 34.516C334.199 34.012 334.019 33.544 333.995 33.112C333.971 32.848 334.055 32.62 334.247 32.428C334.439 32.236 334.679 32.14 334.967 32.14H336.263C336.407 32.14 336.575 32.164 336.767 32.212C336.959 32.236 337.139 32.368 337.307 32.608C337.691 33.136 338.219 33.544 338.891 33.832C339.563 34.12 340.439 34.264 341.519 34.264C342.047 34.264 342.563 34.204 343.067 34.084C343.595 33.964 344.051 33.796 344.435 33.58C344.843 33.364 345.167 33.112 345.407 32.824C345.647 32.512 345.767 32.176 345.767 31.816ZM363.258 31.816C363.258 31.36 363.126 30.988 362.862 30.7C362.622 30.388 362.25 30.124 361.746 29.908C361.242 29.692 360.594 29.488 359.802 29.296C359.034 29.104 358.134 28.9 357.102 28.684C355.158 28.276 353.79 27.604 352.998 26.668C352.23 25.708 351.846 24.592 351.846 23.32C351.846 22.6 351.99 21.916 352.278 21.268C352.566 20.62 352.998 20.044 353.574 19.54C354.15 19.036 354.87 18.64 355.734 18.352C356.622 18.064 357.654 17.92 358.83 17.92C360.006 17.92 361.026 18.052 361.89 18.316C362.778 18.58 363.522 18.916 364.122 19.324C364.722 19.732 365.178 20.176 365.49 20.656C365.802 21.112 365.97 21.556 365.994 21.988C366.018 22.252 365.922 22.48 365.706 22.672C365.514 22.864 365.286 22.96 365.022 22.96H363.834C363.69 22.96 363.51 22.936 363.294 22.888C363.102 22.816 362.922 22.672 362.754 22.456C362.442 22.048 361.974 21.712 361.35 21.448C360.75 21.16 359.91 21.016 358.83 21.016C357.726 21.016 356.826 21.22 356.13 21.628C355.458 22.036 355.122 22.6 355.122 23.32C355.122 23.776 355.218 24.148 355.41 24.436C355.602 24.7 355.914 24.94 356.346 25.156C356.778 25.348 357.342 25.528 358.038 25.696C358.758 25.864 359.646 26.068 360.702 26.308C361.806 26.548 362.73 26.86 363.474 27.244C364.218 27.604 364.818 28.024 365.274 28.504C365.73 28.96 366.054 29.476 366.246 30.052C366.438 30.604 366.534 31.192 366.534 31.816C366.534 32.536 366.354 33.232 365.994 33.904C365.658 34.576 365.166 35.164 364.518 35.668C363.87 36.172 363.078 36.58 362.142 36.892C361.23 37.204 360.186 37.36 359.01 37.36C357.834 37.36 356.79 37.216 355.878 36.928C354.966 36.64 354.186 36.292 353.538 35.884C352.89 35.452 352.386 34.996 352.026 34.516C351.69 34.012 351.51 33.544 351.486 33.112C351.462 32.848 351.546 32.62 351.738 32.428C351.93 32.236 352.17 32.14 352.458 32.14H353.754C353.898 32.14 354.066 32.164 354.258 32.212C354.45 32.236 354.63 32.368 354.798 32.608C355.182 33.136 355.71 33.544 356.382 33.832C357.054 34.12 357.93 34.264 359.01 34.264C359.538 34.264 360.054 34.204 360.558 34.084C361.086 33.964 361.542 33.796 361.926 33.58C362.334 33.364 362.658 33.112 362.898 32.824C363.138 32.512 363.258 32.176 363.258 31.816ZM394.794 36.028C394.794 36.292 394.698 36.52 394.506 36.712C394.314 36.904 394.086 37 393.822 37H392.49C392.226 37 391.998 36.904 391.806 36.712C391.614 36.52 391.518 36.292 391.518 36.028V26.524C391.518 24.676 391.074 23.296 390.186 22.384C389.298 21.472 388.062 21.016 386.478 21.016C384.966 21.016 383.742 21.472 382.806 22.384C381.894 23.296 381.438 24.676 381.438 26.524V36.028C381.438 36.292 381.342 36.52 381.15 36.712C380.958 36.904 380.73 37 380.466 37H379.134C378.87 37 378.642 36.904 378.45 36.712C378.258 36.52 378.162 36.292 378.162 36.028V12.412C378.162 12.148 378.258 11.92 378.45 11.728C378.642 11.536 378.87 11.44 379.134 11.44H380.466C380.73 11.44 380.958 11.536 381.15 11.728C381.342 11.92 381.438 12.148 381.438 12.412V20.368C381.894 19.768 382.566 19.216 383.454 18.712C384.366 18.184 385.554 17.92 387.018 17.92C388.146 17.92 389.19 18.112 390.15 18.496C391.11 18.856 391.926 19.384 392.598 20.08C393.294 20.752 393.834 21.592 394.218 22.6C394.602 23.608 394.794 24.736 394.794 25.984V36.028ZM406.977 17.92C408.273 17.92 409.425 18.124 410.433 18.532C411.441 18.916 412.305 19.456 413.025 20.152C413.745 20.848 414.309 21.7 414.717 22.708C415.149 23.692 415.413 24.772 415.509 25.948C415.533 26.164 415.545 26.428 415.545 26.74C415.545 27.028 415.545 27.34 415.545 27.676C415.545 27.988 415.545 28.3 415.545 28.612C415.545 28.9 415.533 29.14 415.509 29.332C415.389 30.532 415.125 31.624 414.717 32.608C414.309 33.592 413.745 34.432 413.025 35.128C412.305 35.824 411.441 36.376 410.433 36.784C409.425 37.168 408.273 37.36 406.977 37.36C405.681 37.36 404.529 37.168 403.521 36.784C402.513 36.376 401.649 35.824 400.929 35.128C400.209 34.432 399.633 33.592 399.201 32.608C398.793 31.624 398.541 30.532 398.445 29.332C398.421 29.14 398.397 28.9 398.373 28.612C398.373 28.3 398.373 27.988 398.373 27.676C398.373 27.34 398.373 27.028 398.373 26.74C398.397 26.428 398.421 26.164 398.445 25.948C398.541 24.772 398.793 23.692 399.201 22.708C399.633 21.7 400.209 20.848 400.929 20.152C401.649 19.456 402.513 18.916 403.521 18.532C404.529 18.124 405.681 17.92 406.977 17.92ZM412.233 29.152C412.281 28.744 412.305 28.252 412.305 27.676C412.305 27.076 412.281 26.56 412.233 26.128C412.161 25.408 412.005 24.736 411.765 24.112C411.525 23.488 411.189 22.948 410.757 22.492C410.325 22.036 409.797 21.676 409.173 21.412C408.549 21.148 407.817 21.016 406.977 21.016C406.137 21.016 405.405 21.148 404.781 21.412C404.157 21.676 403.629 22.036 403.197 22.492C402.765 22.948 402.429 23.488 402.189 24.112C401.949 24.736 401.793 25.408 401.721 26.128C401.673 26.56 401.649 27.076 401.649 27.676C401.649 28.252 401.673 28.744 401.721 29.152C401.793 29.872 401.949 30.544 402.189 31.168C402.429 31.792 402.765 32.332 403.197 32.788C403.629 33.244 404.157 33.604 404.781 33.868C405.405 34.132 406.137 34.264 406.977 34.264C407.817 34.264 408.549 34.132 409.173 33.868C409.797 33.604 410.325 33.244 410.757 32.788C411.189 32.332 411.525 31.792 411.765 31.168C412.005 30.544 412.161 29.872 412.233 29.152ZM436.443 31.168L440.475 19.144C440.547 18.952 440.679 18.76 440.871 18.568C441.063 18.376 441.339 18.28 441.699 18.28H442.887C443.127 18.28 443.331 18.364 443.499 18.532C443.667 18.7 443.751 18.904 443.751 19.144C443.751 19.24 443.739 19.336 443.715 19.432L438.207 35.992C438.111 36.28 437.979 36.52 437.811 36.712C437.667 36.904 437.439 37 437.127 37H436.011C435.699 37 435.459 36.904 435.291 36.712C435.147 36.496 435.015 36.256 434.895 35.992L430.611 24.04L426.327 35.992C426.207 36.256 426.063 36.496 425.895 36.712C425.751 36.904 425.523 37 425.211 37H424.095C423.783 37 423.543 36.904 423.375 36.712C423.231 36.52 423.111 36.28 423.015 35.992L417.507 19.432C417.483 19.336 417.471 19.24 417.471 19.144C417.471 18.904 417.555 18.7 417.723 18.532C417.891 18.364 418.095 18.28 418.335 18.28H419.523C419.883 18.28 420.159 18.376 420.351 18.568C420.543 18.76 420.675 18.952 420.747 19.144L424.779 31.168L429.099 19.144C429.171 18.952 429.279 18.76 429.423 18.568C429.591 18.376 429.855 18.28 430.215 18.28H431.007C431.367 18.28 431.619 18.376 431.763 18.568C431.931 18.76 432.051 18.952 432.123 19.144L436.443 31.168ZM471.039 31.168L475.071 19.144C475.143 18.952 475.275 18.76 475.467 18.568C475.659 18.376 475.935 18.28 476.295 18.28H477.483C477.723 18.28 477.927 18.364 478.095 18.532C478.263 18.7 478.347 18.904 478.347 19.144C478.347 19.24 478.335 19.336 478.311 19.432L472.803 35.992C472.707 36.28 472.575 36.52 472.407 36.712C472.263 36.904 472.035 37 471.723 37H470.607C470.295 37 470.055 36.904 469.887 36.712C469.743 36.496 469.611 36.256 469.491 35.992L465.207 24.04L460.923 35.992C460.803 36.256 460.659 36.496 460.491 36.712C460.347 36.904 460.119 37 459.807 37H458.691C458.379 37 458.139 36.904 457.971 36.712C457.827 36.52 457.707 36.28 457.611 35.992L452.103 19.432C452.079 19.336 452.067 19.24 452.067 19.144C452.067 18.904 452.151 18.7 452.319 18.532C452.487 18.364 452.691 18.28 452.931 18.28H454.119C454.479 18.28 454.755 18.376 454.947 18.568C455.139 18.76 455.271 18.952 455.343 19.144L459.375 31.168L463.695 19.144C463.767 18.952 463.875 18.76 464.019 18.568C464.187 18.376 464.451 18.28 464.811 18.28H465.603C465.963 18.28 466.215 18.376 466.359 18.568C466.527 18.76 466.647 18.952 466.719 19.144L471.039 31.168ZM480.257 25.84C480.353 24.736 480.617 23.704 481.049 22.744C481.481 21.784 482.045 20.944 482.741 20.224C483.437 19.504 484.265 18.94 485.225 18.532C486.209 18.124 487.301 17.92 488.501 17.92C489.797 17.92 490.949 18.136 491.957 18.568C492.989 18.976 493.865 19.576 494.585 20.368C495.305 21.16 495.857 22.12 496.241 23.248C496.625 24.376 496.817 25.636 496.817 27.028V28C496.817 28.264 496.721 28.492 496.529 28.684C496.337 28.876 496.109 28.972 495.845 28.972H483.461V29.188C483.509 30.82 484.001 32.08 484.937 32.968C485.897 33.832 487.085 34.264 488.501 34.264C489.821 34.264 490.805 34.084 491.453 33.724C492.125 33.34 492.665 32.92 493.073 32.464C493.265 32.272 493.433 32.14 493.577 32.068C493.721 31.996 493.937 31.96 494.225 31.96H495.305C495.569 31.96 495.809 32.056 496.025 32.248C496.241 32.44 496.325 32.668 496.277 32.932C496.205 33.364 496.001 33.844 495.665 34.372C495.329 34.876 494.837 35.356 494.189 35.812C493.565 36.244 492.773 36.616 491.813 36.928C490.877 37.216 489.773 37.36 488.501 37.36C487.301 37.36 486.221 37.156 485.261 36.748C484.301 36.316 483.461 35.74 482.741 35.02C482.045 34.276 481.481 33.412 481.049 32.428C480.617 31.42 480.353 30.328 480.257 29.152C480.137 28.048 480.137 26.944 480.257 25.84ZM483.461 25.948H493.577V25.84C493.577 24.376 493.109 23.212 492.173 22.348C491.261 21.46 490.037 21.016 488.501 21.016C487.805 21.016 487.157 21.136 486.557 21.376C485.957 21.592 485.429 21.916 484.973 22.348C484.517 22.756 484.157 23.26 483.893 23.86C483.629 24.46 483.485 25.12 483.461 25.84V25.948ZM510.921 28.9C511.017 29.86 511.221 30.676 511.533 31.348C511.869 32.02 512.265 32.572 512.721 33.004C513.201 33.436 513.729 33.76 514.305 33.976C514.881 34.168 515.469 34.264 516.069 34.264C517.221 34.264 518.205 34.048 519.021 33.616C519.837 33.184 520.473 32.464 520.929 31.456C521.097 31.072 521.265 30.82 521.433 30.7C521.625 30.556 521.853 30.484 522.117 30.484H523.197C523.461 30.484 523.689 30.58 523.881 30.772C524.097 30.964 524.193 31.192 524.169 31.456C524.145 32.032 523.953 32.668 523.593 33.364C523.257 34.036 522.741 34.672 522.045 35.272C521.373 35.848 520.533 36.34 519.525 36.748C518.541 37.156 517.389 37.36 516.069 37.36C514.749 37.36 513.573 37.144 512.541 36.712C511.533 36.28 510.669 35.692 509.949 34.948C509.253 34.204 508.701 33.328 508.293 32.32C507.909 31.312 507.693 30.232 507.645 29.08C507.621 28.696 507.597 28.228 507.573 27.676C507.573 27.1 507.597 26.608 507.645 26.2C507.741 25.048 507.981 23.968 508.365 22.96C508.773 21.952 509.325 21.076 510.021 20.332C510.717 19.588 511.569 19 512.577 18.568C513.585 18.136 514.749 17.92 516.069 17.92C517.389 17.92 518.541 18.124 519.525 18.532C520.533 18.94 521.373 19.444 522.045 20.044C522.741 20.62 523.257 21.256 523.593 21.952C523.953 22.624 524.145 23.248 524.169 23.824C524.193 24.088 524.097 24.316 523.881 24.508C523.689 24.7 523.461 24.796 523.197 24.796H522.117C521.853 24.796 521.625 24.736 521.433 24.616C521.265 24.472 521.097 24.208 520.929 23.824C520.473 22.816 519.837 22.096 519.021 21.664C518.205 21.232 517.221 21.016 516.069 21.016C515.469 21.016 514.869 21.124 514.269 21.34C513.693 21.532 513.165 21.844 512.685 22.276C512.229 22.708 511.833 23.26 511.497 23.932C511.185 24.604 510.993 25.42 510.921 26.38C510.849 27.268 510.849 28.108 510.921 28.9ZM526.426 32.284C526.426 31.324 526.618 30.484 527.002 29.764C527.386 29.044 527.914 28.432 528.586 27.928C529.258 27.424 530.038 27.016 530.926 26.704C531.838 26.392 532.798 26.152 533.806 25.984L538.882 25.156V24.688C538.882 23.464 538.474 22.552 537.658 21.952C536.866 21.328 535.87 21.016 534.67 21.016C533.614 21.016 532.81 21.208 532.258 21.592C531.73 21.976 531.274 22.432 530.89 22.96C530.746 23.152 530.59 23.284 530.422 23.356C530.254 23.428 530.026 23.464 529.738 23.464H528.658C528.394 23.464 528.154 23.368 527.938 23.176C527.746 22.984 527.662 22.756 527.686 22.492C527.734 21.964 527.938 21.424 528.298 20.872C528.682 20.32 529.186 19.828 529.81 19.396C530.458 18.964 531.19 18.616 532.006 18.352C532.846 18.064 533.734 17.92 534.67 17.92C535.75 17.92 536.746 18.076 537.658 18.388C538.594 18.7 539.386 19.156 540.034 19.756C540.706 20.356 541.222 21.1 541.582 21.988C541.966 22.876 542.158 23.896 542.158 25.048V36.028C542.158 36.292 542.062 36.52 541.87 36.712C541.678 36.904 541.45 37 541.186 37H539.854C539.59 37 539.362 36.904 539.17 36.712C538.978 36.52 538.882 36.292 538.882 36.028V34.552C538.666 35.008 538.33 35.416 537.874 35.776C537.418 36.112 536.89 36.4 536.29 36.64C535.714 36.88 535.102 37.06 534.454 37.18C533.83 37.3 533.242 37.36 532.69 37.36C531.754 37.36 530.89 37.228 530.098 36.964C529.33 36.7 528.67 36.352 528.118 35.92C527.59 35.464 527.17 34.924 526.858 34.3C526.57 33.676 526.426 33.004 526.426 32.284ZM533.05 34.264C533.914 34.264 534.706 34.132 535.426 33.868C536.146 33.604 536.758 33.244 537.262 32.788C537.79 32.308 538.186 31.744 538.45 31.096C538.738 30.448 538.882 29.728 538.882 28.936V28.036L534.634 28.72C533.122 28.96 531.922 29.344 531.034 29.872C530.146 30.4 529.702 31.084 529.702 31.924C529.702 32.188 529.762 32.452 529.882 32.716C530.002 32.98 530.194 33.232 530.458 33.472C530.722 33.712 531.058 33.904 531.466 34.048C531.898 34.192 532.426 34.264 533.05 34.264ZM563.322 36.028C563.322 36.292 563.226 36.52 563.034 36.712C562.842 36.904 562.614 37 562.35 37H561.018C560.754 37 560.526 36.904 560.334 36.712C560.142 36.52 560.046 36.292 560.046 36.028V26.524C560.046 24.676 559.602 23.296 558.714 22.384C557.826 21.472 556.59 21.016 555.006 21.016C553.494 21.016 552.27 21.472 551.334 22.384C550.422 23.296 549.966 24.676 549.966 26.524V36.028C549.966 36.292 549.87 36.52 549.678 36.712C549.486 36.904 549.258 37 548.994 37H547.662C547.398 37 547.17 36.904 546.978 36.712C546.786 36.52 546.69 36.292 546.69 36.028V19.252C546.69 18.988 546.786 18.76 546.978 18.568C547.17 18.376 547.398 18.28 547.662 18.28H548.994C549.258 18.28 549.486 18.376 549.678 18.568C549.87 18.76 549.966 18.988 549.966 19.252V20.368C550.422 19.768 551.094 19.216 551.982 18.712C552.894 18.184 554.082 17.92 555.546 17.92C556.674 17.92 557.718 18.112 558.678 18.496C559.638 18.856 560.454 19.384 561.126 20.08C561.822 20.752 562.362 21.592 562.746 22.6C563.13 23.608 563.322 24.736 563.322 25.984V36.028ZM584.762 37.36C583.274 37.36 582.086 37.108 581.198 36.604C580.31 36.076 579.638 35.512 579.182 34.912V42.868C579.182 43.132 579.086 43.36 578.894 43.552C578.702 43.744 578.474 43.84 578.21 43.84H576.878C576.614 43.84 576.386 43.744 576.194 43.552C576.002 43.36 575.906 43.132 575.906 42.868V19.252C575.906 18.988 576.002 18.76 576.194 18.568C576.386 18.376 576.614 18.28 576.878 18.28H578.21C578.474 18.28 578.702 18.376 578.894 18.568C579.086 18.76 579.182 18.988 579.182 19.252V20.368C579.662 19.72 580.346 19.156 581.234 18.676C582.122 18.172 583.298 17.92 584.762 17.92C585.89 17.92 586.934 18.124 587.894 18.532C588.878 18.916 589.73 19.48 590.45 20.224C591.17 20.968 591.746 21.868 592.178 22.924C592.61 23.98 592.862 25.168 592.934 26.488C592.958 26.848 592.97 27.244 592.97 27.676C592.97 28.084 592.958 28.468 592.934 28.828C592.862 30.148 592.61 31.336 592.178 32.392C591.746 33.448 591.17 34.348 590.45 35.092C589.73 35.812 588.878 36.376 587.894 36.784C586.934 37.168 585.89 37.36 584.762 37.36ZM579.182 26.092C579.158 26.452 579.146 26.932 579.146 27.532C579.146 28.108 579.158 28.576 579.182 28.936C579.254 30.64 579.758 31.96 580.694 32.896C581.654 33.808 582.89 34.264 584.402 34.264C585.986 34.264 587.234 33.76 588.146 32.752C589.058 31.744 589.562 30.376 589.658 28.648C589.682 27.976 589.682 27.304 589.658 26.632C589.562 24.904 589.058 23.536 588.146 22.528C587.234 21.52 585.986 21.016 584.402 21.016C582.914 21.016 581.69 21.472 580.73 22.384C579.77 23.296 579.254 24.532 579.182 26.092ZM595.37 32.284C595.37 31.324 595.562 30.484 595.946 29.764C596.33 29.044 596.858 28.432 597.53 27.928C598.202 27.424 598.982 27.016 599.87 26.704C600.782 26.392 601.742 26.152 602.75 25.984L607.826 25.156V24.688C607.826 23.464 607.418 22.552 606.602 21.952C605.81 21.328 604.814 21.016 603.614 21.016C602.558 21.016 601.754 21.208 601.202 21.592C600.674 21.976 600.218 22.432 599.834 22.96C599.69 23.152 599.534 23.284 599.366 23.356C599.198 23.428 598.97 23.464 598.682 23.464H597.602C597.338 23.464 597.098 23.368 596.882 23.176C596.69 22.984 596.606 22.756 596.63 22.492C596.678 21.964 596.882 21.424 597.242 20.872C597.626 20.32 598.13 19.828 598.754 19.396C599.402 18.964 600.134 18.616 600.95 18.352C601.79 18.064 602.678 17.92 603.614 17.92C604.694 17.92 605.69 18.076 606.602 18.388C607.538 18.7 608.33 19.156 608.978 19.756C609.65 20.356 610.166 21.1 610.526 21.988C610.91 22.876 611.102 23.896 611.102 25.048V36.028C611.102 36.292 611.006 36.52 610.814 36.712C610.622 36.904 610.394 37 610.13 37H608.798C608.534 37 608.306 36.904 608.114 36.712C607.922 36.52 607.826 36.292 607.826 36.028V34.552C607.61 35.008 607.274 35.416 606.818 35.776C606.362 36.112 605.834 36.4 605.234 36.64C604.658 36.88 604.046 37.06 603.398 37.18C602.774 37.3 602.186 37.36 601.634 37.36C600.698 37.36 599.834 37.228 599.042 36.964C598.274 36.7 597.614 36.352 597.062 35.92C596.534 35.464 596.114 34.924 595.802 34.3C595.514 33.676 595.37 33.004 595.37 32.284ZM601.994 34.264C602.858 34.264 603.65 34.132 604.37 33.868C605.09 33.604 605.702 33.244 606.206 32.788C606.734 32.308 607.13 31.744 607.394 31.096C607.682 30.448 607.826 29.728 607.826 28.936V28.036L603.578 28.72C602.066 28.96 600.866 29.344 599.978 29.872C599.09 30.4 598.646 31.084 598.646 31.924C598.646 32.188 598.706 32.452 598.826 32.716C598.946 32.98 599.138 33.232 599.402 33.472C599.666 33.712 600.002 33.904 600.41 34.048C600.842 34.192 601.37 34.264 601.994 34.264ZM625.138 18.28C625.402 18.28 625.63 18.376 625.822 18.568C626.014 18.76 626.11 18.988 626.11 19.252V20.404C626.11 20.668 626.014 20.896 625.822 21.088C625.63 21.28 625.402 21.376 625.138 21.376H623.05C620.29 21.376 618.91 22.756 618.91 25.516V36.028C618.91 36.292 618.814 36.52 618.622 36.712C618.43 36.904 618.202 37 617.938 37H616.606C616.342 37 616.114 36.904 615.922 36.712C615.73 36.52 615.634 36.292 615.634 36.028V19.252C615.634 18.988 615.73 18.76 615.922 18.568C616.114 18.376 616.342 18.28 616.606 18.28H617.938C618.202 18.28 618.43 18.376 618.622 18.568C618.814 18.76 618.91 18.988 618.91 19.252V20.368C619.39 19.648 619.966 19.12 620.638 18.784C621.31 18.448 622.186 18.28 623.266 18.28H625.138ZM633.416 30.7C633.416 31.156 633.452 31.588 633.524 31.996C633.62 32.38 633.776 32.716 633.992 33.004C634.208 33.292 634.508 33.52 634.892 33.688C635.3 33.832 635.816 33.904 636.44 33.904H638.348C638.612 33.904 638.84 34 639.032 34.192C639.224 34.384 639.32 34.612 639.32 34.876V36.028C639.32 36.292 639.224 36.52 639.032 36.712C638.84 36.904 638.612 37 638.348 37H636.08C633.992 37 632.48 36.46 631.544 35.38C630.608 34.3 630.14 32.74 630.14 30.7V21.376H627.476C627.212 21.376 626.984 21.28 626.792 21.088C626.6 20.896 626.504 20.668 626.504 20.404V19.252C626.504 18.988 626.6 18.76 626.792 18.568C626.984 18.376 627.212 18.28 627.476 18.28H630.14V12.412C630.14 12.148 630.236 11.92 630.428 11.728C630.62 11.536 630.848 11.44 631.112 11.44H632.444C632.708 11.44 632.936 11.536 633.128 11.728C633.32 11.92 633.416 12.148 633.416 12.412V18.28H637.988C638.252 18.28 638.48 18.376 638.672 18.568C638.864 18.76 638.96 18.988 638.96 19.252V20.404C638.96 20.668 638.864 20.896 638.672 21.088C638.48 21.28 638.252 21.376 637.988 21.376H633.416V30.7ZM658.846 36.028C658.846 36.292 658.75 36.52 658.558 36.712C658.366 36.904 658.138 37 657.874 37H656.542C656.278 37 656.05 36.904 655.858 36.712C655.666 36.52 655.57 36.292 655.57 36.028V26.524C655.57 24.676 655.126 23.296 654.238 22.384C653.35 21.472 652.114 21.016 650.53 21.016C649.018 21.016 647.794 21.472 646.858 22.384C645.946 23.296 645.49 24.676 645.49 26.524V36.028C645.49 36.292 645.394 36.52 645.202 36.712C645.01 36.904 644.782 37 644.518 37H643.186C642.922 37 642.694 36.904 642.502 36.712C642.31 36.52 642.214 36.292 642.214 36.028V19.252C642.214 18.988 642.31 18.76 642.502 18.568C642.694 18.376 642.922 18.28 643.186 18.28H644.518C644.782 18.28 645.01 18.376 645.202 18.568C645.394 18.76 645.49 18.988 645.49 19.252V20.368C645.946 19.768 646.618 19.216 647.506 18.712C648.418 18.184 649.606 17.92 651.07 17.92C652.198 17.92 653.242 18.112 654.202 18.496C655.162 18.856 655.978 19.384 656.65 20.08C657.346 20.752 657.886 21.592 658.27 22.6C658.654 23.608 658.846 24.736 658.846 25.984V36.028ZM662.497 25.84C662.593 24.736 662.857 23.704 663.289 22.744C663.721 21.784 664.285 20.944 664.981 20.224C665.677 19.504 666.505 18.94 667.465 18.532C668.449 18.124 669.541 17.92 670.741 17.92C672.037 17.92 673.189 18.136 674.197 18.568C675.229 18.976 676.105 19.576 676.825 20.368C677.545 21.16 678.097 22.12 678.481 23.248C678.865 24.376 679.057 25.636 679.057 27.028V28C679.057 28.264 678.961 28.492 678.769 28.684C678.577 28.876 678.349 28.972 678.085 28.972H665.701V29.188C665.749 30.82 666.241 32.08 667.177 32.968C668.137 33.832 669.325 34.264 670.741 34.264C672.061 34.264 673.045 34.084 673.693 33.724C674.365 33.34 674.905 32.92 675.313 32.464C675.505 32.272 675.673 32.14 675.817 32.068C675.961 31.996 676.177 31.96 676.465 31.96H677.545C677.809 31.96 678.049 32.056 678.265 32.248C678.481 32.44 678.565 32.668 678.517 32.932C678.445 33.364 678.241 33.844 677.905 34.372C677.569 34.876 677.077 35.356 676.429 35.812C675.805 36.244 675.013 36.616 674.053 36.928C673.117 37.216 672.013 37.36 670.741 37.36C669.541 37.36 668.461 37.156 667.501 36.748C666.541 36.316 665.701 35.74 664.981 35.02C664.285 34.276 663.721 33.412 663.289 32.428C662.857 31.42 662.593 30.328 662.497 29.152C662.377 28.048 662.377 26.944 662.497 25.84ZM665.701 25.948H675.817V25.84C675.817 24.376 675.349 23.212 674.413 22.348C673.501 21.46 672.277 21.016 670.741 21.016C670.045 21.016 669.397 21.136 668.797 21.376C668.197 21.592 667.669 21.916 667.213 22.348C666.757 22.756 666.397 23.26 666.133 23.86C665.869 24.46 665.725 25.12 665.701 25.84V25.948ZM692.184 18.28C692.448 18.28 692.676 18.376 692.868 18.568C693.06 18.76 693.156 18.988 693.156 19.252V20.404C693.156 20.668 693.06 20.896 692.868 21.088C692.676 21.28 692.448 21.376 692.184 21.376H690.096C687.336 21.376 685.956 22.756 685.956 25.516V36.028C685.956 36.292 685.86 36.52 685.668 36.712C685.476 36.904 685.248 37 684.984 37H683.652C683.388 37 683.16 36.904 682.968 36.712C682.776 36.52 682.68 36.292 682.68 36.028V19.252C682.68 18.988 682.776 18.76 682.968 18.568C683.16 18.376 683.388 18.28 683.652 18.28H684.984C685.248 18.28 685.476 18.376 685.668 18.568C685.86 18.76 685.956 18.988 685.956 19.252V20.368C686.436 19.648 687.012 19.12 687.684 18.784C688.356 18.448 689.232 18.28 690.312 18.28H692.184ZM706.913 30.7C706.913 31.156 706.949 31.588 707.021 31.996C707.117 32.38 707.273 32.716 707.489 33.004C707.705 33.292 708.005 33.52 708.389 33.688C708.797 33.832 709.313 33.904 709.937 33.904H711.845C712.109 33.904 712.337 34 712.529 34.192C712.721 34.384 712.817 34.612 712.817 34.876V36.028C712.817 36.292 712.721 36.52 712.529 36.712C712.337 36.904 712.109 37 711.845 37H709.577C707.489 37 705.977 36.46 705.041 35.38C704.105 34.3 703.637 32.74 703.637 30.7V21.376H700.973C700.709 21.376 700.481 21.28 700.289 21.088C700.097 20.896 700.001 20.668 700.001 20.404V19.252C700.001 18.988 700.097 18.76 700.289 18.568C700.481 18.376 700.709 18.28 700.973 18.28H703.637V12.412C703.637 12.148 703.733 11.92 703.925 11.728C704.117 11.536 704.345 11.44 704.609 11.44H705.941C706.205 11.44 706.433 11.536 706.625 11.728C706.817 11.92 706.913 12.148 706.913 12.412V18.28H711.485C711.749 18.28 711.977 18.376 712.169 18.568C712.361 18.76 712.457 18.988 712.457 19.252V20.404C712.457 20.668 712.361 20.896 712.169 21.088C711.977 21.28 711.749 21.376 711.485 21.376H706.913V30.7ZM723.379 17.92C724.675 17.92 725.827 18.124 726.835 18.532C727.843 18.916 728.707 19.456 729.427 20.152C730.147 20.848 730.711 21.7 731.119 22.708C731.551 23.692 731.815 24.772 731.911 25.948C731.935 26.164 731.947 26.428 731.947 26.74C731.947 27.028 731.947 27.34 731.947 27.676C731.947 27.988 731.947 28.3 731.947 28.612C731.947 28.9 731.935 29.14 731.911 29.332C731.791 30.532 731.527 31.624 731.119 32.608C730.711 33.592 730.147 34.432 729.427 35.128C728.707 35.824 727.843 36.376 726.835 36.784C725.827 37.168 724.675 37.36 723.379 37.36C722.083 37.36 720.931 37.168 719.923 36.784C718.915 36.376 718.051 35.824 717.331 35.128C716.611 34.432 716.035 33.592 715.603 32.608C715.195 31.624 714.943 30.532 714.847 29.332C714.823 29.14 714.799 28.9 714.775 28.612C714.775 28.3 714.775 27.988 714.775 27.676C714.775 27.34 714.775 27.028 714.775 26.74C714.799 26.428 714.823 26.164 714.847 25.948C714.943 24.772 715.195 23.692 715.603 22.708C716.035 21.7 716.611 20.848 717.331 20.152C718.051 19.456 718.915 18.916 719.923 18.532C720.931 18.124 722.083 17.92 723.379 17.92ZM728.635 29.152C728.683 28.744 728.707 28.252 728.707 27.676C728.707 27.076 728.683 26.56 728.635 26.128C728.563 25.408 728.407 24.736 728.167 24.112C727.927 23.488 727.591 22.948 727.159 22.492C726.727 22.036 726.199 21.676 725.575 21.412C724.951 21.148 724.219 21.016 723.379 21.016C722.539 21.016 721.807 21.148 721.183 21.412C720.559 21.676 720.031 22.036 719.599 22.492C719.167 22.948 718.831 23.488 718.591 24.112C718.351 24.736 718.195 25.408 718.123 26.128C718.075 26.56 718.051 27.076 718.051 27.676C718.051 28.252 718.075 28.744 718.123 29.152C718.195 29.872 718.351 30.544 718.591 31.168C718.831 31.792 719.167 32.332 719.599 32.788C720.031 33.244 720.559 33.604 721.183 33.868C721.807 34.132 722.539 34.264 723.379 34.264C724.219 34.264 724.951 34.132 725.575 33.868C726.199 33.604 726.727 33.244 727.159 32.788C727.591 32.332 727.927 31.792 728.167 31.168C728.407 30.544 728.563 29.872 728.635 29.152ZM57.5297 70.368C57.7457 70.08 57.9977 69.792 58.2857 69.504C58.5737 69.192 58.8977 68.928 59.2577 68.712C59.6417 68.472 60.0857 68.28 60.5897 68.136C61.0937 67.992 61.6817 67.92 62.3537 67.92C63.8177 67.92 65.0297 68.196 65.9897 68.748C66.9497 69.276 67.7057 70.044 68.2577 71.052C68.5697 70.62 68.8937 70.212 69.2297 69.828C69.5897 69.444 69.9977 69.108 70.4537 68.82C70.9337 68.532 71.4617 68.316 72.0377 68.172C72.6377 68.004 73.3337 67.92 74.1257 67.92C76.5497 67.92 78.3137 68.652 79.4177 70.116C80.5217 71.556 81.0737 73.536 81.0737 76.056V86.028C81.0737 86.292 80.9777 86.52 80.7857 86.712C80.5937 86.904 80.3657 87 80.1017 87H78.7697C78.5057 87 78.2777 86.904 78.0857 86.712C77.8937 86.52 77.7977 86.292 77.7977 86.028V76.416C77.7977 74.568 77.4377 73.212 76.7177 72.348C75.9977 71.46 74.9417 71.016 73.5497 71.016C72.2777 71.016 71.2457 71.436 70.4537 72.276C69.6857 73.116 69.3017 74.412 69.3017 76.164V86.028C69.3017 86.292 69.2057 86.52 69.0137 86.712C68.8217 86.904 68.5937 87 68.3297 87H66.9977C66.7337 87 66.5057 86.904 66.3137 86.712C66.1217 86.52 66.0257 86.292 66.0257 86.028V76.416C66.0257 74.568 65.6657 73.212 64.9457 72.348C64.2257 71.46 63.1697 71.016 61.7777 71.016C60.5057 71.016 59.4737 71.436 58.6817 72.276C57.9137 73.116 57.5297 74.412 57.5297 76.164V86.028C57.5297 86.292 57.4337 86.52 57.2417 86.712C57.0497 86.904 56.8217 87 56.5577 87H55.2257C54.9617 87 54.7337 86.904 54.5417 86.712C54.3497 86.52 54.2537 86.292 54.2537 86.028V69.252C54.2537 68.988 54.3497 68.76 54.5417 68.568C54.7337 68.376 54.9617 68.28 55.2257 68.28H56.5577C56.8217 68.28 57.0497 68.376 57.2417 68.568C57.4337 68.76 57.5297 68.988 57.5297 69.252V70.368ZM84.229 82.284C84.229 81.324 84.421 80.484 84.805 79.764C85.189 79.044 85.717 78.432 86.389 77.928C87.061 77.424 87.841 77.016 88.729 76.704C89.641 76.392 90.601 76.152 91.609 75.984L96.685 75.156V74.688C96.685 73.464 96.277 72.552 95.461 71.952C94.669 71.328 93.673 71.016 92.473 71.016C91.417 71.016 90.613 71.208 90.061 71.592C89.533 71.976 89.077 72.432 88.693 72.96C88.549 73.152 88.393 73.284 88.225 73.356C88.057 73.428 87.829 73.464 87.541 73.464H86.461C86.197 73.464 85.957 73.368 85.741 73.176C85.549 72.984 85.465 72.756 85.489 72.492C85.537 71.964 85.741 71.424 86.101 70.872C86.485 70.32 86.989 69.828 87.613 69.396C88.261 68.964 88.993 68.616 89.809 68.352C90.649 68.064 91.537 67.92 92.473 67.92C93.553 67.92 94.549 68.076 95.461 68.388C96.397 68.7 97.189 69.156 97.837 69.756C98.509 70.356 99.025 71.1 99.385 71.988C99.769 72.876 99.961 73.896 99.961 75.048V86.028C99.961 86.292 99.865 86.52 99.673 86.712C99.481 86.904 99.253 87 98.989 87H97.657C97.393 87 97.165 86.904 96.973 86.712C96.781 86.52 96.685 86.292 96.685 86.028V84.552C96.469 85.008 96.133 85.416 95.677 85.776C95.221 86.112 94.693 86.4 94.093 86.64C93.517 86.88 92.905 87.06 92.257 87.18C91.633 87.3 91.045 87.36 90.493 87.36C89.557 87.36 88.693 87.228 87.901 86.964C87.133 86.7 86.473 86.352 85.921 85.92C85.393 85.464 84.973 84.924 84.661 84.3C84.373 83.676 84.229 83.004 84.229 82.284ZM90.853 84.264C91.717 84.264 92.509 84.132 93.229 83.868C93.949 83.604 94.561 83.244 95.065 82.788C95.593 82.308 95.989 81.744 96.253 81.096C96.541 80.448 96.685 79.728 96.685 78.936V78.036L92.437 78.72C90.925 78.96 89.725 79.344 88.837 79.872C87.949 80.4 87.505 81.084 87.505 81.924C87.505 82.188 87.565 82.452 87.685 82.716C87.805 82.98 87.997 83.232 88.261 83.472C88.525 83.712 88.861 83.904 89.269 84.048C89.701 84.192 90.229 84.264 90.853 84.264ZM107.769 79.08V86.028C107.769 86.292 107.673 86.52 107.481 86.712C107.289 86.904 107.061 87 106.797 87H105.465C105.201 87 104.973 86.904 104.781 86.712C104.589 86.52 104.493 86.292 104.493 86.028V62.412C104.493 62.148 104.589 61.92 104.781 61.728C104.973 61.536 105.201 61.44 105.465 61.44H106.797C107.061 61.44 107.289 61.536 107.481 61.728C107.673 61.92 107.769 62.148 107.769 62.412V74.328L114.789 68.892C114.933 68.772 115.113 68.64 115.329 68.496C115.569 68.352 115.857 68.28 116.193 68.28H117.993C118.233 68.28 118.437 68.364 118.605 68.532C118.773 68.7 118.857 68.904 118.857 69.144C118.857 69.264 118.833 69.384 118.785 69.504C118.761 69.6 118.653 69.72 118.461 69.864L109.785 76.632L119.361 85.452C119.505 85.596 119.601 85.716 119.649 85.812C119.697 85.908 119.721 86.016 119.721 86.136C119.721 86.376 119.637 86.58 119.469 86.748C119.301 86.916 119.097 87 118.857 87H117.165C116.805 87 116.493 86.928 116.229 86.784C115.989 86.64 115.809 86.508 115.689 86.388L107.769 79.08ZM120.241 75.84C120.337 74.736 120.601 73.704 121.033 72.744C121.465 71.784 122.029 70.944 122.725 70.224C123.421 69.504 124.249 68.94 125.209 68.532C126.193 68.124 127.285 67.92 128.485 67.92C129.781 67.92 130.933 68.136 131.941 68.568C132.973 68.976 133.849 69.576 134.569 70.368C135.289 71.16 135.841 72.12 136.225 73.248C136.609 74.376 136.801 75.636 136.801 77.028V78C136.801 78.264 136.705 78.492 136.513 78.684C136.321 78.876 136.093 78.972 135.829 78.972H123.445V79.188C123.493 80.82 123.985 82.08 124.921 82.968C125.881 83.832 127.069 84.264 128.485 84.264C129.805 84.264 130.789 84.084 131.437 83.724C132.109 83.34 132.649 82.92 133.057 82.464C133.249 82.272 133.417 82.14 133.561 82.068C133.705 81.996 133.921 81.96 134.209 81.96H135.289C135.553 81.96 135.793 82.056 136.009 82.248C136.225 82.44 136.309 82.668 136.261 82.932C136.189 83.364 135.985 83.844 135.649 84.372C135.313 84.876 134.821 85.356 134.173 85.812C133.549 86.244 132.757 86.616 131.797 86.928C130.861 87.216 129.757 87.36 128.485 87.36C127.285 87.36 126.205 87.156 125.245 86.748C124.285 86.316 123.445 85.74 122.725 85.02C122.029 84.276 121.465 83.412 121.033 82.428C120.601 81.42 120.337 80.328 120.241 79.152C120.121 78.048 120.121 76.944 120.241 75.84ZM123.445 75.948H133.561V75.84C133.561 74.376 133.093 73.212 132.157 72.348C131.245 71.46 130.021 71.016 128.485 71.016C127.789 71.016 127.141 71.136 126.541 71.376C125.941 71.592 125.413 71.916 124.957 72.348C124.501 72.756 124.141 73.26 123.877 73.86C123.613 74.46 123.469 75.12 123.445 75.84V75.948ZM155.766 67.92C157.254 67.92 158.442 68.184 159.33 68.712C160.218 69.216 160.89 69.768 161.346 70.368V62.412C161.346 62.148 161.442 61.92 161.634 61.728C161.826 61.536 162.054 61.44 162.318 61.44H163.65C163.914 61.44 164.142 61.536 164.334 61.728C164.526 61.92 164.622 62.148 164.622 62.412V86.028C164.622 86.292 164.526 86.52 164.334 86.712C164.142 86.904 163.914 87 163.65 87H162.318C162.054 87 161.826 86.904 161.634 86.712C161.442 86.52 161.346 86.292 161.346 86.028V84.912C160.866 85.56 160.182 86.136 159.294 86.64C158.406 87.12 157.23 87.36 155.766 87.36C154.638 87.36 153.582 87.168 152.598 86.784C151.638 86.376 150.798 85.8 150.078 85.056C149.358 84.312 148.782 83.412 148.35 82.356C147.918 81.3 147.666 80.112 147.594 78.792C147.57 78.432 147.558 78.048 147.558 77.64C147.558 77.208 147.57 76.812 147.594 76.452C147.666 75.132 147.918 73.944 148.35 72.888C148.782 71.832 149.358 70.944 150.078 70.224C150.798 69.48 151.638 68.916 152.598 68.532C153.582 68.124 154.638 67.92 155.766 67.92ZM161.346 79.188C161.37 78.828 161.382 78.36 161.382 77.784C161.382 77.184 161.37 76.704 161.346 76.344C161.274 74.64 160.758 73.332 159.798 72.42C158.862 71.484 157.638 71.016 156.126 71.016C154.542 71.016 153.294 71.52 152.382 72.528C151.47 73.536 150.966 74.904 150.87 76.632C150.846 77.304 150.846 77.976 150.87 78.648C150.966 80.376 151.47 81.744 152.382 82.752C153.294 83.76 154.542 84.264 156.126 84.264C157.614 84.264 158.838 83.808 159.798 82.896C160.758 81.984 161.274 80.748 161.346 79.188ZM172.565 86.028C172.565 86.292 172.469 86.52 172.277 86.712C172.085 86.904 171.857 87 171.593 87H170.261C169.997 87 169.769 86.904 169.577 86.712C169.385 86.52 169.289 86.292 169.289 86.028V69.252C169.289 68.988 169.385 68.76 169.577 68.568C169.769 68.376 169.997 68.28 170.261 68.28H171.593C171.857 68.28 172.085 68.376 172.277 68.568C172.469 68.76 172.565 68.988 172.565 69.252V86.028ZM172.925 64.464C172.925 64.728 172.829 64.956 172.637 65.148C172.445 65.34 172.217 65.436 171.953 65.436H169.901C169.637 65.436 169.409 65.34 169.217 65.148C169.025 64.956 168.929 64.728 168.929 64.464V62.412C168.929 62.148 169.025 61.92 169.217 61.728C169.409 61.536 169.637 61.44 169.901 61.44H171.953C172.217 61.44 172.445 61.536 172.637 61.728C172.829 61.92 172.925 62.148 172.925 62.412V64.464ZM176.353 76.452C176.425 75.132 176.677 73.944 177.109 72.888C177.541 71.832 178.117 70.944 178.837 70.224C179.557 69.48 180.397 68.916 181.357 68.532C182.341 68.124 183.397 67.92 184.525 67.92C186.013 67.92 187.201 68.184 188.089 68.712C188.977 69.216 189.649 69.768 190.105 70.368V69.252C190.105 68.988 190.201 68.76 190.393 68.568C190.585 68.376 190.813 68.28 191.077 68.28H192.409C192.673 68.28 192.901 68.376 193.093 68.568C193.285 68.76 193.381 68.988 193.381 69.252V86.748C193.381 89.244 192.673 91.224 191.257 92.688C189.841 94.176 187.717 94.92 184.885 94.92C183.445 94.92 182.209 94.74 181.177 94.38C180.169 94.044 179.329 93.612 178.657 93.084C178.009 92.556 177.517 91.98 177.181 91.356C176.869 90.732 176.701 90.132 176.677 89.556C176.653 89.292 176.737 89.064 176.929 88.872C177.145 88.68 177.385 88.584 177.649 88.584H178.729C178.993 88.584 179.209 88.644 179.377 88.764C179.569 88.908 179.749 89.172 179.917 89.556C179.989 89.7 180.097 89.892 180.241 90.132C180.409 90.396 180.661 90.648 180.997 90.888C181.357 91.152 181.813 91.368 182.365 91.536C182.941 91.728 183.661 91.824 184.525 91.824C185.317 91.824 186.049 91.74 186.721 91.572C187.417 91.428 188.017 91.176 188.521 90.816C189.025 90.456 189.409 89.976 189.673 89.376C189.961 88.776 190.105 88.044 190.105 87.18V84.912C189.625 85.56 188.941 86.136 188.053 86.64C187.165 87.12 185.989 87.36 184.525 87.36C183.397 87.36 182.341 87.168 181.357 86.784C180.397 86.376 179.557 85.812 178.837 85.092C178.117 84.348 177.541 83.448 177.109 82.392C176.677 81.336 176.425 80.148 176.353 78.828C176.329 78.468 176.317 78.072 176.317 77.64C176.317 77.208 176.329 76.812 176.353 76.452ZM190.105 76.344C190.033 74.64 189.517 73.332 188.557 72.42C187.621 71.484 186.397 71.016 184.885 71.016C183.301 71.016 182.053 71.52 181.141 72.528C180.229 73.536 179.725 74.904 179.629 76.632C179.605 77.304 179.605 77.976 179.629 78.648C179.725 80.376 180.229 81.744 181.141 82.752C182.053 83.76 183.301 84.264 184.885 84.264C186.397 84.264 187.621 83.796 188.557 82.86C189.517 81.924 190.033 80.616 190.105 78.936C190.129 78.576 190.141 78.144 190.141 77.64C190.141 77.136 190.129 76.704 190.105 76.344ZM201.324 86.028C201.324 86.292 201.228 86.52 201.036 86.712C200.844 86.904 200.616 87 200.352 87H199.02C198.756 87 198.528 86.904 198.336 86.712C198.144 86.52 198.048 86.292 198.048 86.028V69.252C198.048 68.988 198.144 68.76 198.336 68.568C198.528 68.376 198.756 68.28 199.02 68.28H200.352C200.616 68.28 200.844 68.376 201.036 68.568C201.228 68.76 201.324 68.988 201.324 69.252V86.028ZM201.684 64.464C201.684 64.728 201.588 64.956 201.396 65.148C201.204 65.34 200.976 65.436 200.712 65.436H198.66C198.396 65.436 198.168 65.34 197.976 65.148C197.784 64.956 197.688 64.728 197.688 64.464V62.412C197.688 62.148 197.784 61.92 197.976 61.728C198.168 61.536 198.396 61.44 198.66 61.44H200.712C200.976 61.44 201.204 61.536 201.396 61.728C201.588 61.92 201.684 62.148 201.684 62.412V64.464ZM210.908 80.7C210.908 81.156 210.944 81.588 211.016 81.996C211.112 82.38 211.268 82.716 211.484 83.004C211.7 83.292 212 83.52 212.384 83.688C212.792 83.832 213.308 83.904 213.932 83.904H215.84C216.104 83.904 216.332 84 216.524 84.192C216.716 84.384 216.812 84.612 216.812 84.876V86.028C216.812 86.292 216.716 86.52 216.524 86.712C216.332 86.904 216.104 87 215.84 87H213.572C211.484 87 209.972 86.46 209.036 85.38C208.1 84.3 207.632 82.74 207.632 80.7V71.376H204.968C204.704 71.376 204.476 71.28 204.284 71.088C204.092 70.896 203.996 70.668 203.996 70.404V69.252C203.996 68.988 204.092 68.76 204.284 68.568C204.476 68.376 204.704 68.28 204.968 68.28H207.632V62.412C207.632 62.148 207.728 61.92 207.92 61.728C208.112 61.536 208.34 61.44 208.604 61.44H209.936C210.2 61.44 210.428 61.536 210.62 61.728C210.812 61.92 210.908 62.148 210.908 62.412V68.28H215.48C215.744 68.28 215.972 68.376 216.164 68.568C216.356 68.76 216.452 68.988 216.452 69.252V70.404C216.452 70.668 216.356 70.896 216.164 71.088C215.972 71.28 215.744 71.376 215.48 71.376H210.908V80.7ZM218.374 82.284C218.374 81.324 218.566 80.484 218.95 79.764C219.334 79.044 219.862 78.432 220.534 77.928C221.206 77.424 221.986 77.016 222.874 76.704C223.786 76.392 224.746 76.152 225.754 75.984L230.83 75.156V74.688C230.83 73.464 230.422 72.552 229.606 71.952C228.814 71.328 227.818 71.016 226.618 71.016C225.562 71.016 224.758 71.208 224.206 71.592C223.678 71.976 223.222 72.432 222.838 72.96C222.694 73.152 222.538 73.284 222.37 73.356C222.202 73.428 221.974 73.464 221.686 73.464H220.606C220.342 73.464 220.102 73.368 219.886 73.176C219.694 72.984 219.61 72.756 219.634 72.492C219.682 71.964 219.886 71.424 220.246 70.872C220.63 70.32 221.134 69.828 221.758 69.396C222.406 68.964 223.138 68.616 223.954 68.352C224.794 68.064 225.682 67.92 226.618 67.92C227.698 67.92 228.694 68.076 229.606 68.388C230.542 68.7 231.334 69.156 231.982 69.756C232.654 70.356 233.17 71.1 233.53 71.988C233.914 72.876 234.106 73.896 234.106 75.048V86.028C234.106 86.292 234.01 86.52 233.818 86.712C233.626 86.904 233.398 87 233.134 87H231.802C231.538 87 231.31 86.904 231.118 86.712C230.926 86.52 230.83 86.292 230.83 86.028V84.552C230.614 85.008 230.278 85.416 229.822 85.776C229.366 86.112 228.838 86.4 228.238 86.64C227.662 86.88 227.05 87.06 226.402 87.18C225.778 87.3 225.19 87.36 224.638 87.36C223.702 87.36 222.838 87.228 222.046 86.964C221.278 86.7 220.618 86.352 220.066 85.92C219.538 85.464 219.118 84.924 218.806 84.3C218.518 83.676 218.374 83.004 218.374 82.284ZM224.998 84.264C225.862 84.264 226.654 84.132 227.374 83.868C228.094 83.604 228.706 83.244 229.21 82.788C229.738 82.308 230.134 81.744 230.398 81.096C230.686 80.448 230.83 79.728 230.83 78.936V78.036L226.582 78.72C225.07 78.96 223.87 79.344 222.982 79.872C222.094 80.4 221.65 81.084 221.65 81.924C221.65 82.188 221.71 82.452 221.83 82.716C221.95 82.98 222.142 83.232 222.406 83.472C222.67 83.712 223.006 83.904 223.414 84.048C223.846 84.192 224.374 84.264 224.998 84.264ZM241.914 86.028C241.914 86.292 241.818 86.52 241.626 86.712C241.434 86.904 241.206 87 240.942 87H239.61C239.346 87 239.118 86.904 238.926 86.712C238.734 86.52 238.638 86.292 238.638 86.028V62.412C238.638 62.148 238.734 61.92 238.926 61.728C239.118 61.536 239.346 61.44 239.61 61.44H240.942C241.206 61.44 241.434 61.536 241.626 61.728C241.818 61.92 241.914 62.148 241.914 62.412V86.028ZM263.527 87.36C262.039 87.36 260.851 87.108 259.963 86.604C259.075 86.076 258.403 85.512 257.947 84.912V92.868C257.947 93.132 257.851 93.36 257.659 93.552C257.467 93.744 257.239 93.84 256.975 93.84H255.643C255.379 93.84 255.151 93.744 254.959 93.552C254.767 93.36 254.671 93.132 254.671 92.868V69.252C254.671 68.988 254.767 68.76 254.959 68.568C255.151 68.376 255.379 68.28 255.643 68.28H256.975C257.239 68.28 257.467 68.376 257.659 68.568C257.851 68.76 257.947 68.988 257.947 69.252V70.368C258.427 69.72 259.111 69.156 259.999 68.676C260.887 68.172 262.063 67.92 263.527 67.92C264.655 67.92 265.699 68.124 266.659 68.532C267.643 68.916 268.495 69.48 269.215 70.224C269.935 70.968 270.511 71.868 270.943 72.924C271.375 73.98 271.627 75.168 271.699 76.488C271.723 76.848 271.735 77.244 271.735 77.676C271.735 78.084 271.723 78.468 271.699 78.828C271.627 80.148 271.375 81.336 270.943 82.392C270.511 83.448 269.935 84.348 269.215 85.092C268.495 85.812 267.643 86.376 266.659 86.784C265.699 87.168 264.655 87.36 263.527 87.36ZM257.947 76.092C257.923 76.452 257.911 76.932 257.911 77.532C257.911 78.108 257.923 78.576 257.947 78.936C258.019 80.64 258.523 81.96 259.459 82.896C260.419 83.808 261.655 84.264 263.167 84.264C264.751 84.264 265.999 83.76 266.911 82.752C267.823 81.744 268.327 80.376 268.423 78.648C268.447 77.976 268.447 77.304 268.423 76.632C268.327 74.904 267.823 73.536 266.911 72.528C265.999 71.52 264.751 71.016 263.167 71.016C261.679 71.016 260.455 71.472 259.495 72.384C258.535 73.296 258.019 74.532 257.947 76.092ZM274.135 82.284C274.135 81.324 274.327 80.484 274.711 79.764C275.095 79.044 275.623 78.432 276.295 77.928C276.967 77.424 277.747 77.016 278.635 76.704C279.547 76.392 280.507 76.152 281.515 75.984L286.591 75.156V74.688C286.591 73.464 286.183 72.552 285.367 71.952C284.575 71.328 283.579 71.016 282.379 71.016C281.323 71.016 280.519 71.208 279.967 71.592C279.439 71.976 278.983 72.432 278.599 72.96C278.455 73.152 278.299 73.284 278.131 73.356C277.963 73.428 277.735 73.464 277.447 73.464H276.367C276.103 73.464 275.863 73.368 275.647 73.176C275.455 72.984 275.371 72.756 275.395 72.492C275.443 71.964 275.647 71.424 276.007 70.872C276.391 70.32 276.895 69.828 277.519 69.396C278.167 68.964 278.899 68.616 279.715 68.352C280.555 68.064 281.443 67.92 282.379 67.92C283.459 67.92 284.455 68.076 285.367 68.388C286.303 68.7 287.095 69.156 287.743 69.756C288.415 70.356 288.931 71.1 289.291 71.988C289.675 72.876 289.867 73.896 289.867 75.048V86.028C289.867 86.292 289.771 86.52 289.579 86.712C289.387 86.904 289.159 87 288.895 87H287.563C287.299 87 287.071 86.904 286.879 86.712C286.687 86.52 286.591 86.292 286.591 86.028V84.552C286.375 85.008 286.039 85.416 285.583 85.776C285.127 86.112 284.599 86.4 283.999 86.64C283.423 86.88 282.811 87.06 282.163 87.18C281.539 87.3 280.951 87.36 280.399 87.36C279.463 87.36 278.599 87.228 277.807 86.964C277.039 86.7 276.379 86.352 275.827 85.92C275.299 85.464 274.879 84.924 274.567 84.3C274.279 83.676 274.135 83.004 274.135 82.284ZM280.759 84.264C281.623 84.264 282.415 84.132 283.135 83.868C283.855 83.604 284.467 83.244 284.971 82.788C285.499 82.308 285.895 81.744 286.159 81.096C286.447 80.448 286.591 79.728 286.591 78.936V78.036L282.343 78.72C280.831 78.96 279.631 79.344 278.743 79.872C277.855 80.4 277.411 81.084 277.411 81.924C277.411 82.188 277.471 82.452 277.591 82.716C277.711 82.98 277.903 83.232 278.167 83.472C278.431 83.712 278.767 83.904 279.175 84.048C279.607 84.192 280.135 84.264 280.759 84.264ZM299.415 92.976C299.343 93.168 299.223 93.36 299.055 93.552C298.887 93.744 298.659 93.84 298.371 93.84H296.895C296.655 93.84 296.451 93.756 296.283 93.588C296.115 93.42 296.031 93.216 296.031 92.976C296.031 92.88 296.043 92.796 296.067 92.724L299.523 85.2L292.395 69.396C292.371 69.324 292.359 69.24 292.359 69.144C292.359 68.904 292.443 68.7 292.611 68.532C292.779 68.364 292.983 68.28 293.223 68.28H294.699C294.987 68.28 295.215 68.376 295.383 68.568C295.551 68.76 295.671 68.952 295.743 69.144L301.287 81.384L306.903 69.144C306.975 68.952 307.095 68.76 307.263 68.568C307.431 68.376 307.659 68.28 307.947 68.28H309.423C309.663 68.28 309.867 68.364 310.035 68.532C310.203 68.7 310.287 68.904 310.287 69.144C310.287 69.24 310.275 69.324 310.251 69.396L299.415 92.976ZM316.502 70.368C316.718 70.08 316.97 69.792 317.258 69.504C317.546 69.192 317.87 68.928 318.23 68.712C318.614 68.472 319.058 68.28 319.562 68.136C320.066 67.992 320.654 67.92 321.326 67.92C322.79 67.92 324.002 68.196 324.962 68.748C325.922 69.276 326.678 70.044 327.23 71.052C327.542 70.62 327.866 70.212 328.202 69.828C328.562 69.444 328.97 69.108 329.426 68.82C329.906 68.532 330.434 68.316 331.01 68.172C331.61 68.004 332.306 67.92 333.098 67.92C335.522 67.92 337.286 68.652 338.39 70.116C339.494 71.556 340.046 73.536 340.046 76.056V86.028C340.046 86.292 339.95 86.52 339.758 86.712C339.566 86.904 339.338 87 339.074 87H337.742C337.478 87 337.25 86.904 337.058 86.712C336.866 86.52 336.77 86.292 336.77 86.028V76.416C336.77 74.568 336.41 73.212 335.69 72.348C334.97 71.46 333.914 71.016 332.522 71.016C331.25 71.016 330.218 71.436 329.426 72.276C328.658 73.116 328.274 74.412 328.274 76.164V86.028C328.274 86.292 328.178 86.52 327.986 86.712C327.794 86.904 327.566 87 327.302 87H325.97C325.706 87 325.478 86.904 325.286 86.712C325.094 86.52 324.998 86.292 324.998 86.028V76.416C324.998 74.568 324.638 73.212 323.918 72.348C323.198 71.46 322.142 71.016 320.75 71.016C319.478 71.016 318.446 71.436 317.654 72.276C316.886 73.116 316.502 74.412 316.502 76.164V86.028C316.502 86.292 316.406 86.52 316.214 86.712C316.022 86.904 315.794 87 315.53 87H314.198C313.934 87 313.706 86.904 313.514 86.712C313.322 86.52 313.226 86.292 313.226 86.028V69.252C313.226 68.988 313.322 68.76 313.514 68.568C313.706 68.376 313.934 68.28 314.198 68.28H315.53C315.794 68.28 316.022 68.376 316.214 68.568C316.406 68.76 316.502 68.988 316.502 69.252V70.368ZM343.669 75.84C343.765 74.736 344.029 73.704 344.461 72.744C344.893 71.784 345.457 70.944 346.153 70.224C346.849 69.504 347.677 68.94 348.637 68.532C349.621 68.124 350.713 67.92 351.913 67.92C353.209 67.92 354.361 68.136 355.369 68.568C356.401 68.976 357.277 69.576 357.997 70.368C358.717 71.16 359.269 72.12 359.653 73.248C360.037 74.376 360.229 75.636 360.229 77.028V78C360.229 78.264 360.133 78.492 359.941 78.684C359.749 78.876 359.521 78.972 359.257 78.972H346.873V79.188C346.921 80.82 347.413 82.08 348.349 82.968C349.309 83.832 350.497 84.264 351.913 84.264C353.233 84.264 354.217 84.084 354.865 83.724C355.537 83.34 356.077 82.92 356.485 82.464C356.677 82.272 356.845 82.14 356.989 82.068C357.133 81.996 357.349 81.96 357.637 81.96H358.717C358.981 81.96 359.221 82.056 359.437 82.248C359.653 82.44 359.737 82.668 359.689 82.932C359.617 83.364 359.413 83.844 359.077 84.372C358.741 84.876 358.249 85.356 357.601 85.812C356.977 86.244 356.185 86.616 355.225 86.928C354.289 87.216 353.185 87.36 351.913 87.36C350.713 87.36 349.633 87.156 348.673 86.748C347.713 86.316 346.873 85.74 346.153 85.02C345.457 84.276 344.893 83.412 344.461 82.428C344.029 81.42 343.765 80.328 343.669 79.152C343.549 78.048 343.549 76.944 343.669 75.84ZM346.873 75.948H356.989V75.84C356.989 74.376 356.521 73.212 355.585 72.348C354.673 71.46 353.449 71.016 351.913 71.016C351.217 71.016 350.569 71.136 349.969 71.376C349.369 71.592 348.841 71.916 348.385 72.348C347.929 72.756 347.569 73.26 347.305 73.86C347.041 74.46 346.897 75.12 346.873 75.84V75.948ZM380.484 86.028C380.484 86.292 380.388 86.52 380.196 86.712C380.004 86.904 379.776 87 379.512 87H378.18C377.916 87 377.688 86.904 377.496 86.712C377.304 86.52 377.208 86.292 377.208 86.028V76.524C377.208 74.676 376.764 73.296 375.876 72.384C374.988 71.472 373.752 71.016 372.168 71.016C370.656 71.016 369.432 71.472 368.496 72.384C367.584 73.296 367.128 74.676 367.128 76.524V86.028C367.128 86.292 367.032 86.52 366.84 86.712C366.648 86.904 366.42 87 366.156 87H364.824C364.56 87 364.332 86.904 364.14 86.712C363.948 86.52 363.852 86.292 363.852 86.028V69.252C363.852 68.988 363.948 68.76 364.14 68.568C364.332 68.376 364.56 68.28 364.824 68.28H366.156C366.42 68.28 366.648 68.376 366.84 68.568C367.032 68.76 367.128 68.988 367.128 69.252V70.368C367.584 69.768 368.256 69.216 369.144 68.712C370.056 68.184 371.244 67.92 372.708 67.92C373.836 67.92 374.88 68.112 375.84 68.496C376.8 68.856 377.616 69.384 378.288 70.08C378.984 70.752 379.524 71.592 379.908 72.6C380.292 73.608 380.484 74.736 380.484 75.984V86.028ZM389.614 80.7C389.614 81.156 389.65 81.588 389.722 81.996C389.818 82.38 389.974 82.716 390.19 83.004C390.406 83.292 390.706 83.52 391.09 83.688C391.498 83.832 392.014 83.904 392.638 83.904H394.546C394.81 83.904 395.038 84 395.23 84.192C395.422 84.384 395.518 84.612 395.518 84.876V86.028C395.518 86.292 395.422 86.52 395.23 86.712C395.038 86.904 394.81 87 394.546 87H392.278C390.19 87 388.678 86.46 387.742 85.38C386.806 84.3 386.338 82.74 386.338 80.7V71.376H383.674C383.41 71.376 383.182 71.28 382.99 71.088C382.798 70.896 382.702 70.668 382.702 70.404V69.252C382.702 68.988 382.798 68.76 382.99 68.568C383.182 68.376 383.41 68.28 383.674 68.28H386.338V62.412C386.338 62.148 386.434 61.92 386.626 61.728C386.818 61.536 387.046 61.44 387.31 61.44H388.642C388.906 61.44 389.134 61.536 389.326 61.728C389.518 61.92 389.614 62.148 389.614 62.412V68.28H394.186C394.45 68.28 394.678 68.376 394.87 68.568C395.062 68.76 395.158 68.988 395.158 69.252V70.404C395.158 70.668 395.062 70.896 394.87 71.088C394.678 71.28 394.45 71.376 394.186 71.376H389.614V80.7ZM409.068 81.816C409.068 81.36 408.936 80.988 408.672 80.7C408.432 80.388 408.06 80.124 407.556 79.908C407.052 79.692 406.404 79.488 405.612 79.296C404.844 79.104 403.944 78.9 402.912 78.684C400.968 78.276 399.6 77.604 398.808 76.668C398.04 75.708 397.656 74.592 397.656 73.32C397.656 72.6 397.8 71.916 398.088 71.268C398.376 70.62 398.808 70.044 399.384 69.54C399.96 69.036 400.68 68.64 401.544 68.352C402.432 68.064 403.464 67.92 404.64 67.92C405.816 67.92 406.836 68.052 407.7 68.316C408.588 68.58 409.332 68.916 409.932 69.324C410.532 69.732 410.988 70.176 411.3 70.656C411.612 71.112 411.78 71.556 411.804 71.988C411.828 72.252 411.732 72.48 411.516 72.672C411.324 72.864 411.096 72.96 410.832 72.96H409.644C409.5 72.96 409.32 72.936 409.104 72.888C408.912 72.816 408.732 72.672 408.564 72.456C408.252 72.048 407.784 71.712 407.16 71.448C406.56 71.16 405.72 71.016 404.64 71.016C403.536 71.016 402.636 71.22 401.94 71.628C401.268 72.036 400.932 72.6 400.932 73.32C400.932 73.776 401.028 74.148 401.22 74.436C401.412 74.7 401.724 74.94 402.156 75.156C402.588 75.348 403.152 75.528 403.848 75.696C404.568 75.864 405.456 76.068 406.512 76.308C407.616 76.548 408.54 76.86 409.284 77.244C410.028 77.604 410.628 78.024 411.084 78.504C411.54 78.96 411.864 79.476 412.056 80.052C412.248 80.604 412.344 81.192 412.344 81.816C412.344 82.536 412.164 83.232 411.804 83.904C411.468 84.576 410.976 85.164 410.328 85.668C409.68 86.172 408.888 86.58 407.952 86.892C407.04 87.204 405.996 87.36 404.82 87.36C403.644 87.36 402.6 87.216 401.688 86.928C400.776 86.64 399.996 86.292 399.348 85.884C398.7 85.452 398.196 84.996 397.836 84.516C397.5 84.012 397.32 83.544 397.296 83.112C397.272 82.848 397.356 82.62 397.548 82.428C397.74 82.236 397.98 82.14 398.268 82.14H399.564C399.708 82.14 399.876 82.164 400.068 82.212C400.26 82.236 400.44 82.368 400.608 82.608C400.992 83.136 401.52 83.544 402.192 83.832C402.864 84.12 403.74 84.264 404.82 84.264C405.348 84.264 405.864 84.204 406.368 84.084C406.896 83.964 407.352 83.796 407.736 83.58C408.144 83.364 408.468 83.112 408.708 82.824C408.948 82.512 409.068 82.176 409.068 81.816ZM434.628 81.816C434.628 81.36 434.496 80.988 434.232 80.7C433.992 80.388 433.62 80.124 433.116 79.908C432.612 79.692 431.964 79.488 431.172 79.296C430.404 79.104 429.504 78.9 428.472 78.684C426.528 78.276 425.16 77.604 424.368 76.668C423.6 75.708 423.216 74.592 423.216 73.32C423.216 72.6 423.36 71.916 423.648 71.268C423.936 70.62 424.368 70.044 424.944 69.54C425.52 69.036 426.24 68.64 427.104 68.352C427.992 68.064 429.024 67.92 430.2 67.92C431.376 67.92 432.396 68.052 433.26 68.316C434.148 68.58 434.892 68.916 435.492 69.324C436.092 69.732 436.548 70.176 436.86 70.656C437.172 71.112 437.34 71.556 437.364 71.988C437.388 72.252 437.292 72.48 437.076 72.672C436.884 72.864 436.656 72.96 436.392 72.96H435.204C435.06 72.96 434.88 72.936 434.664 72.888C434.472 72.816 434.292 72.672 434.124 72.456C433.812 72.048 433.344 71.712 432.72 71.448C432.12 71.16 431.28 71.016 430.2 71.016C429.096 71.016 428.196 71.22 427.5 71.628C426.828 72.036 426.492 72.6 426.492 73.32C426.492 73.776 426.588 74.148 426.78 74.436C426.972 74.7 427.284 74.94 427.716 75.156C428.148 75.348 428.712 75.528 429.408 75.696C430.128 75.864 431.016 76.068 432.072 76.308C433.176 76.548 434.1 76.86 434.844 77.244C435.588 77.604 436.188 78.024 436.644 78.504C437.1 78.96 437.424 79.476 437.616 80.052C437.808 80.604 437.904 81.192 437.904 81.816C437.904 82.536 437.724 83.232 437.364 83.904C437.028 84.576 436.536 85.164 435.888 85.668C435.24 86.172 434.448 86.58 433.512 86.892C432.6 87.204 431.556 87.36 430.38 87.36C429.204 87.36 428.16 87.216 427.248 86.928C426.336 86.64 425.556 86.292 424.908 85.884C424.26 85.452 423.756 84.996 423.396 84.516C423.06 84.012 422.88 83.544 422.856 83.112C422.832 82.848 422.916 82.62 423.108 82.428C423.3 82.236 423.54 82.14 423.828 82.14H425.124C425.268 82.14 425.436 82.164 425.628 82.212C425.82 82.236 426 82.368 426.168 82.608C426.552 83.136 427.08 83.544 427.752 83.832C428.424 84.12 429.3 84.264 430.38 84.264C430.908 84.264 431.424 84.204 431.928 84.084C432.456 83.964 432.912 83.796 433.296 83.58C433.704 83.364 434.028 83.112 434.268 82.824C434.508 82.512 434.628 82.176 434.628 81.816ZM444.739 86.028C444.739 86.292 444.643 86.52 444.451 86.712C444.259 86.904 444.031 87 443.767 87H442.435C442.171 87 441.943 86.904 441.751 86.712C441.559 86.52 441.463 86.292 441.463 86.028V69.252C441.463 68.988 441.559 68.76 441.751 68.568C441.943 68.376 442.171 68.28 442.435 68.28H443.767C444.031 68.28 444.259 68.376 444.451 68.568C444.643 68.76 444.739 68.988 444.739 69.252V86.028ZM445.099 64.464C445.099 64.728 445.003 64.956 444.811 65.148C444.619 65.34 444.391 65.436 444.127 65.436H442.075C441.811 65.436 441.583 65.34 441.391 65.148C441.199 64.956 441.103 64.728 441.103 64.464V62.412C441.103 62.148 441.199 61.92 441.391 61.728C441.583 61.536 441.811 61.44 442.075 61.44H444.127C444.391 61.44 444.619 61.536 444.811 61.728C445.003 61.92 445.099 62.148 445.099 62.412V64.464ZM452.703 70.368C452.919 70.08 453.171 69.792 453.459 69.504C453.747 69.192 454.071 68.928 454.431 68.712C454.815 68.472 455.259 68.28 455.763 68.136C456.267 67.992 456.855 67.92 457.527 67.92C458.991 67.92 460.203 68.196 461.163 68.748C462.123 69.276 462.879 70.044 463.431 71.052C463.743 70.62 464.067 70.212 464.403 69.828C464.763 69.444 465.171 69.108 465.627 68.82C466.107 68.532 466.635 68.316 467.211 68.172C467.811 68.004 468.507 67.92 469.299 67.92C471.723 67.92 473.487 68.652 474.591 70.116C475.695 71.556 476.247 73.536 476.247 76.056V86.028C476.247 86.292 476.151 86.52 475.959 86.712C475.767 86.904 475.539 87 475.275 87H473.943C473.679 87 473.451 86.904 473.259 86.712C473.067 86.52 472.971 86.292 472.971 86.028V76.416C472.971 74.568 472.611 73.212 471.891 72.348C471.171 71.46 470.115 71.016 468.723 71.016C467.451 71.016 466.419 71.436 465.627 72.276C464.859 73.116 464.475 74.412 464.475 76.164V86.028C464.475 86.292 464.379 86.52 464.187 86.712C463.995 86.904 463.767 87 463.503 87H462.171C461.907 87 461.679 86.904 461.487 86.712C461.295 86.52 461.199 86.292 461.199 86.028V76.416C461.199 74.568 460.839 73.212 460.119 72.348C459.399 71.46 458.343 71.016 456.951 71.016C455.679 71.016 454.647 71.436 453.855 72.276C453.087 73.116 452.703 74.412 452.703 76.164V86.028C452.703 86.292 452.607 86.52 452.415 86.712C452.223 86.904 451.995 87 451.731 87H450.399C450.135 87 449.907 86.904 449.715 86.712C449.523 86.52 449.427 86.292 449.427 86.028V69.252C449.427 68.988 449.523 68.76 449.715 68.568C449.907 68.376 450.135 68.28 450.399 68.28H451.731C451.995 68.28 452.223 68.376 452.415 68.568C452.607 68.76 452.703 68.988 452.703 69.252V70.368ZM489.59 87.36C488.102 87.36 486.914 87.108 486.026 86.604C485.138 86.076 484.466 85.512 484.01 84.912V92.868C484.01 93.132 483.914 93.36 483.722 93.552C483.53 93.744 483.302 93.84 483.038 93.84H481.706C481.442 93.84 481.214 93.744 481.022 93.552C480.83 93.36 480.734 93.132 480.734 92.868V69.252C480.734 68.988 480.83 68.76 481.022 68.568C481.214 68.376 481.442 68.28 481.706 68.28H483.038C483.302 68.28 483.53 68.376 483.722 68.568C483.914 68.76 484.01 68.988 484.01 69.252V70.368C484.49 69.72 485.174 69.156 486.062 68.676C486.95 68.172 488.126 67.92 489.59 67.92C490.718 67.92 491.762 68.124 492.722 68.532C493.706 68.916 494.558 69.48 495.278 70.224C495.998 70.968 496.574 71.868 497.006 72.924C497.438 73.98 497.69 75.168 497.762 76.488C497.786 76.848 497.798 77.244 497.798 77.676C497.798 78.084 497.786 78.468 497.762 78.828C497.69 80.148 497.438 81.336 497.006 82.392C496.574 83.448 495.998 84.348 495.278 85.092C494.558 85.812 493.706 86.376 492.722 86.784C491.762 87.168 490.718 87.36 489.59 87.36ZM484.01 76.092C483.986 76.452 483.974 76.932 483.974 77.532C483.974 78.108 483.986 78.576 484.01 78.936C484.082 80.64 484.586 81.96 485.522 82.896C486.482 83.808 487.718 84.264 489.23 84.264C490.814 84.264 492.062 83.76 492.974 82.752C493.886 81.744 494.39 80.376 494.486 78.648C494.51 77.976 494.51 77.304 494.486 76.632C494.39 74.904 493.886 73.536 492.974 72.528C492.062 71.52 490.814 71.016 489.23 71.016C487.742 71.016 486.518 71.472 485.558 72.384C484.598 73.296 484.082 74.532 484.01 76.092ZM504.806 86.028C504.806 86.292 504.71 86.52 504.518 86.712C504.326 86.904 504.098 87 503.834 87H502.502C502.238 87 502.01 86.904 501.818 86.712C501.626 86.52 501.53 86.292 501.53 86.028V62.412C501.53 62.148 501.626 61.92 501.818 61.728C502.01 61.536 502.238 61.44 502.502 61.44H503.834C504.098 61.44 504.326 61.536 504.518 61.728C504.71 61.92 504.806 62.148 504.806 62.412V86.028ZM512.769 86.028C512.769 86.292 512.673 86.52 512.481 86.712C512.289 86.904 512.061 87 511.797 87H510.465C510.201 87 509.973 86.904 509.781 86.712C509.589 86.52 509.493 86.292 509.493 86.028V69.252C509.493 68.988 509.589 68.76 509.781 68.568C509.973 68.376 510.201 68.28 510.465 68.28H511.797C512.061 68.28 512.289 68.376 512.481 68.568C512.673 68.76 512.769 68.988 512.769 69.252V86.028ZM513.129 64.464C513.129 64.728 513.033 64.956 512.841 65.148C512.649 65.34 512.421 65.436 512.157 65.436H510.105C509.841 65.436 509.613 65.34 509.421 65.148C509.229 64.956 509.133 64.728 509.133 64.464V62.412C509.133 62.148 509.229 61.92 509.421 61.728C509.613 61.536 509.841 61.44 510.105 61.44H512.157C512.421 61.44 512.649 61.536 512.841 61.728C513.033 61.92 513.129 62.148 513.129 62.412V64.464ZM532.469 86.028C532.469 86.292 532.373 86.52 532.181 86.712C531.989 86.904 531.761 87 531.497 87H530.165C529.901 87 529.673 86.904 529.481 86.712C529.289 86.52 529.193 86.292 529.193 86.028V71.376H522.677V86.028C522.677 86.292 522.581 86.52 522.389 86.712C522.197 86.904 521.969 87 521.705 87H520.373C520.109 87 519.881 86.904 519.689 86.712C519.497 86.52 519.401 86.292 519.401 86.028V71.376H516.413C516.149 71.376 515.921 71.28 515.729 71.088C515.537 70.896 515.441 70.668 515.441 70.404V69.252C515.441 68.988 515.537 68.76 515.729 68.568C515.921 68.376 516.149 68.28 516.413 68.28H519.401V66.48C519.401 64.44 519.869 62.916 520.805 61.908C521.741 60.876 523.253 60.36 525.341 60.36H531.497C531.761 60.36 531.989 60.456 532.181 60.648C532.373 60.84 532.469 61.068 532.469 61.332V62.484C532.469 62.748 532.373 62.976 532.181 63.168C531.989 63.36 531.761 63.456 531.497 63.456H525.701C525.077 63.456 524.561 63.54 524.153 63.708C523.769 63.852 523.469 64.068 523.253 64.356C523.037 64.644 522.881 64.992 522.785 65.4C522.713 65.784 522.677 66.204 522.677 66.66V68.28H531.497C531.761 68.28 531.989 68.376 532.181 68.568C532.373 68.76 532.469 68.988 532.469 69.252V86.028ZM536.299 75.84C536.395 74.736 536.659 73.704 537.091 72.744C537.523 71.784 538.087 70.944 538.783 70.224C539.479 69.504 540.307 68.94 541.267 68.532C542.251 68.124 543.343 67.92 544.543 67.92C545.839 67.92 546.991 68.136 547.999 68.568C549.031 68.976 549.907 69.576 550.627 70.368C551.347 71.16 551.899 72.12 552.283 73.248C552.667 74.376 552.859 75.636 552.859 77.028V78C552.859 78.264 552.763 78.492 552.571 78.684C552.379 78.876 552.151 78.972 551.887 78.972H539.503V79.188C539.551 80.82 540.043 82.08 540.979 82.968C541.939 83.832 543.127 84.264 544.543 84.264C545.863 84.264 546.847 84.084 547.495 83.724C548.167 83.34 548.707 82.92 549.115 82.464C549.307 82.272 549.475 82.14 549.619 82.068C549.763 81.996 549.979 81.96 550.267 81.96H551.347C551.611 81.96 551.851 82.056 552.067 82.248C552.283 82.44 552.367 82.668 552.319 82.932C552.247 83.364 552.043 83.844 551.707 84.372C551.371 84.876 550.879 85.356 550.231 85.812C549.607 86.244 548.815 86.616 547.855 86.928C546.919 87.216 545.815 87.36 544.543 87.36C543.343 87.36 542.263 87.156 541.303 86.748C540.343 86.316 539.503 85.74 538.783 85.02C538.087 84.276 537.523 83.412 537.091 82.428C536.659 81.42 536.395 80.328 536.299 79.152C536.179 78.048 536.179 76.944 536.299 75.84ZM539.503 75.948H549.619V75.84C549.619 74.376 549.151 73.212 548.215 72.348C547.303 71.46 546.079 71.016 544.543 71.016C543.847 71.016 543.199 71.136 542.599 71.376C541.999 71.592 541.471 71.916 541.015 72.348C540.559 72.756 540.199 73.26 539.935 73.86C539.671 74.46 539.527 75.12 539.503 75.84V75.948ZM563.754 67.92C565.242 67.92 566.43 68.184 567.318 68.712C568.206 69.216 568.878 69.768 569.334 70.368V62.412C569.334 62.148 569.43 61.92 569.622 61.728C569.814 61.536 570.042 61.44 570.306 61.44H571.638C571.902 61.44 572.13 61.536 572.322 61.728C572.514 61.92 572.61 62.148 572.61 62.412V86.028C572.61 86.292 572.514 86.52 572.322 86.712C572.13 86.904 571.902 87 571.638 87H570.306C570.042 87 569.814 86.904 569.622 86.712C569.43 86.52 569.334 86.292 569.334 86.028V84.912C568.854 85.56 568.17 86.136 567.282 86.64C566.394 87.12 565.218 87.36 563.754 87.36C562.626 87.36 561.57 87.168 560.586 86.784C559.626 86.376 558.786 85.8 558.066 85.056C557.346 84.312 556.77 83.412 556.338 82.356C555.906 81.3 555.654 80.112 555.582 78.792C555.558 78.432 555.546 78.048 555.546 77.64C555.546 77.208 555.558 76.812 555.582 76.452C555.654 75.132 555.906 73.944 556.338 72.888C556.77 71.832 557.346 70.944 558.066 70.224C558.786 69.48 559.626 68.916 560.586 68.532C561.57 68.124 562.626 67.92 563.754 67.92ZM569.334 79.188C569.358 78.828 569.37 78.36 569.37 77.784C569.37 77.184 569.358 76.704 569.334 76.344C569.262 74.64 568.746 73.332 567.786 72.42C566.85 71.484 565.626 71.016 564.114 71.016C562.53 71.016 561.282 71.52 560.37 72.528C559.458 73.536 558.954 74.904 558.858 76.632C558.834 77.304 558.834 77.976 558.858 78.648C558.954 80.376 559.458 81.744 560.37 82.752C561.282 83.76 562.53 84.264 564.114 84.264C565.602 84.264 566.826 83.808 567.786 82.896C568.746 81.984 569.262 80.748 569.334 79.188ZM589.899 68.28H594.471C594.735 68.28 594.963 68.376 595.155 68.568C595.347 68.76 595.443 68.988 595.443 69.252V70.404C595.443 70.668 595.347 70.896 595.155 71.088C594.963 71.28 594.735 71.376 594.471 71.376H589.899V86.028C589.899 86.292 589.803 86.52 589.611 86.712C589.419 86.904 589.191 87 588.927 87H587.595C587.331 87 587.103 86.904 586.911 86.712C586.719 86.52 586.623 86.292 586.623 86.028V71.376H583.599C583.335 71.376 583.107 71.28 582.915 71.088C582.723 70.896 582.627 70.668 582.627 70.404V69.252C582.627 68.988 582.723 68.76 582.915 68.568C583.107 68.376 583.335 68.28 583.599 68.28H586.623V66.48C586.623 64.44 587.091 62.916 588.027 61.908C588.963 60.876 590.475 60.36 592.563 60.36H594.831C595.095 60.36 595.323 60.456 595.515 60.648C595.707 60.84 595.803 61.068 595.803 61.332V62.484C595.803 62.748 595.707 62.976 595.515 63.168C595.323 63.36 595.095 63.456 594.831 63.456H592.923C592.299 63.456 591.783 63.54 591.375 63.708C590.991 63.852 590.691 64.068 590.475 64.356C590.259 64.644 590.103 64.992 590.007 65.4C589.935 65.784 589.899 66.204 589.899 66.66V68.28ZM605.267 67.92C606.563 67.92 607.715 68.124 608.723 68.532C609.731 68.916 610.595 69.456 611.315 70.152C612.035 70.848 612.599 71.7 613.007 72.708C613.439 73.692 613.703 74.772 613.799 75.948C613.823 76.164 613.835 76.428 613.835 76.74C613.835 77.028 613.835 77.34 613.835 77.676C613.835 77.988 613.835 78.3 613.835 78.612C613.835 78.9 613.823 79.14 613.799 79.332C613.679 80.532 613.415 81.624 613.007 82.608C612.599 83.592 612.035 84.432 611.315 85.128C610.595 85.824 609.731 86.376 608.723 86.784C607.715 87.168 606.563 87.36 605.267 87.36C603.971 87.36 602.819 87.168 601.811 86.784C600.803 86.376 599.939 85.824 599.219 85.128C598.499 84.432 597.923 83.592 597.491 82.608C597.083 81.624 596.831 80.532 596.735 79.332C596.711 79.14 596.687 78.9 596.663 78.612C596.663 78.3 596.663 77.988 596.663 77.676C596.663 77.34 596.663 77.028 596.663 76.74C596.687 76.428 596.711 76.164 596.735 75.948C596.831 74.772 597.083 73.692 597.491 72.708C597.923 71.7 598.499 70.848 599.219 70.152C599.939 69.456 600.803 68.916 601.811 68.532C602.819 68.124 603.971 67.92 605.267 67.92ZM610.523 79.152C610.571 78.744 610.595 78.252 610.595 77.676C610.595 77.076 610.571 76.56 610.523 76.128C610.451 75.408 610.295 74.736 610.055 74.112C609.815 73.488 609.479 72.948 609.047 72.492C608.615 72.036 608.087 71.676 607.463 71.412C606.839 71.148 606.107 71.016 605.267 71.016C604.427 71.016 603.695 71.148 603.071 71.412C602.447 71.676 601.919 72.036 601.487 72.492C601.055 72.948 600.719 73.488 600.479 74.112C600.239 74.736 600.083 75.408 600.011 76.128C599.963 76.56 599.939 77.076 599.939 77.676C599.939 78.252 599.963 78.744 600.011 79.152C600.083 79.872 600.239 80.544 600.479 81.168C600.719 81.792 601.055 82.332 601.487 82.788C601.919 83.244 602.447 83.604 603.071 83.868C603.695 84.132 604.427 84.264 605.267 84.264C606.107 84.264 606.839 84.132 607.463 83.868C608.087 83.604 608.615 83.244 609.047 82.788C609.479 82.332 609.815 81.792 610.055 81.168C610.295 80.544 610.451 79.872 610.523 79.152ZM627.161 68.28C627.425 68.28 627.653 68.376 627.845 68.568C628.037 68.76 628.133 68.988 628.133 69.252V70.404C628.133 70.668 628.037 70.896 627.845 71.088C627.653 71.28 627.425 71.376 627.161 71.376H625.073C622.313 71.376 620.933 72.756 620.933 75.516V86.028C620.933 86.292 620.837 86.52 620.645 86.712C620.453 86.904 620.225 87 619.961 87H618.629C618.365 87 618.137 86.904 617.945 86.712C617.753 86.52 617.657 86.292 617.657 86.028V69.252C617.657 68.988 617.753 68.76 617.945 68.568C618.137 68.376 618.365 68.28 618.629 68.28H619.961C620.225 68.28 620.453 68.376 620.645 68.568C620.837 68.76 620.933 68.988 620.933 69.252V70.368C621.413 69.648 621.989 69.12 622.661 68.784C623.333 68.448 624.209 68.28 625.289 68.28H627.161ZM642.326 92.976C642.254 93.168 642.134 93.36 641.966 93.552C641.798 93.744 641.57 93.84 641.282 93.84H639.806C639.566 93.84 639.362 93.756 639.194 93.588C639.026 93.42 638.942 93.216 638.942 92.976C638.942 92.88 638.954 92.796 638.978 92.724L642.434 85.2L635.306 69.396C635.282 69.324 635.27 69.24 635.27 69.144C635.27 68.904 635.354 68.7 635.522 68.532C635.69 68.364 635.894 68.28 636.134 68.28H637.61C637.898 68.28 638.126 68.376 638.294 68.568C638.462 68.76 638.582 68.952 638.654 69.144L644.198 81.384L649.814 69.144C649.886 68.952 650.006 68.76 650.174 68.568C650.342 68.376 650.57 68.28 650.858 68.28H652.334C652.574 68.28 652.778 68.364 652.946 68.532C653.114 68.7 653.198 68.904 653.198 69.144C653.198 69.24 653.186 69.324 653.162 69.396L642.326 92.976ZM663.102 67.92C664.398 67.92 665.55 68.124 666.558 68.532C667.566 68.916 668.43 69.456 669.15 70.152C669.87 70.848 670.434 71.7 670.842 72.708C671.274 73.692 671.538 74.772 671.634 75.948C671.658 76.164 671.67 76.428 671.67 76.74C671.67 77.028 671.67 77.34 671.67 77.676C671.67 77.988 671.67 78.3 671.67 78.612C671.67 78.9 671.658 79.14 671.634 79.332C671.514 80.532 671.25 81.624 670.842 82.608C670.434 83.592 669.87 84.432 669.15 85.128C668.43 85.824 667.566 86.376 666.558 86.784C665.55 87.168 664.398 87.36 663.102 87.36C661.806 87.36 660.654 87.168 659.646 86.784C658.638 86.376 657.774 85.824 657.054 85.128C656.334 84.432 655.758 83.592 655.326 82.608C654.918 81.624 654.666 80.532 654.57 79.332C654.546 79.14 654.522 78.9 654.498 78.612C654.498 78.3 654.498 77.988 654.498 77.676C654.498 77.34 654.498 77.028 654.498 76.74C654.522 76.428 654.546 76.164 654.57 75.948C654.666 74.772 654.918 73.692 655.326 72.708C655.758 71.7 656.334 70.848 657.054 70.152C657.774 69.456 658.638 68.916 659.646 68.532C660.654 68.124 661.806 67.92 663.102 67.92ZM668.358 79.152C668.406 78.744 668.43 78.252 668.43 77.676C668.43 77.076 668.406 76.56 668.358 76.128C668.286 75.408 668.13 74.736 667.89 74.112C667.65 73.488 667.314 72.948 666.882 72.492C666.45 72.036 665.922 71.676 665.298 71.412C664.674 71.148 663.942 71.016 663.102 71.016C662.262 71.016 661.53 71.148 660.906 71.412C660.282 71.676 659.754 72.036 659.322 72.492C658.89 72.948 658.554 73.488 658.314 74.112C658.074 74.736 657.918 75.408 657.846 76.128C657.798 76.56 657.774 77.076 657.774 77.676C657.774 78.252 657.798 78.744 657.846 79.152C657.918 79.872 658.074 80.544 658.314 81.168C658.554 81.792 658.89 82.332 659.322 82.788C659.754 83.244 660.282 83.604 660.906 83.868C661.53 84.132 662.262 84.264 663.102 84.264C663.942 84.264 664.674 84.132 665.298 83.868C665.922 83.604 666.45 83.244 666.882 82.788C667.314 82.332 667.65 81.792 667.89 81.168C668.13 80.544 668.286 79.872 668.358 79.152ZM675.311 69.252C675.311 68.988 675.407 68.76 675.599 68.568C675.791 68.376 676.019 68.28 676.283 68.28H677.615C677.879 68.28 678.107 68.376 678.299 68.568C678.491 68.76 678.587 68.988 678.587 69.252V78.756C678.587 80.604 678.995 81.984 679.811 82.896C680.651 83.808 681.863 84.264 683.447 84.264C684.959 84.264 686.147 83.808 687.011 82.896C687.875 81.984 688.307 80.604 688.307 78.756V69.252C688.307 68.988 688.403 68.76 688.595 68.568C688.787 68.376 689.015 68.28 689.279 68.28H690.611C690.875 68.28 691.103 68.376 691.295 68.568C691.487 68.76 691.583 68.988 691.583 69.252V86.028C691.583 86.292 691.487 86.52 691.295 86.712C691.103 86.904 690.875 87 690.611 87H689.279C689.015 87 688.787 86.904 688.595 86.712C688.403 86.52 688.307 86.292 688.307 86.028V84.912C687.851 85.512 687.203 86.076 686.363 86.604C685.523 87.108 684.371 87.36 682.907 87.36C681.779 87.36 680.747 87.18 679.811 86.82C678.875 86.436 678.071 85.908 677.399 85.236C676.727 84.54 676.211 83.7 675.851 82.716C675.491 81.708 675.311 80.568 675.311 79.296V69.252ZM699.204 82.644C699.468 82.644 699.696 82.74 699.888 82.932C700.08 83.124 700.176 83.352 700.176 83.616V86.028C700.176 86.292 700.08 86.52 699.888 86.712C699.696 86.904 699.468 87 699.204 87H696.792C696.528 87 696.3 86.904 696.108 86.712C695.916 86.52 695.82 86.292 695.82 86.028V83.616C695.82 83.352 695.916 83.124 696.108 82.932C696.3 82.74 696.528 82.644 696.792 82.644H699.204Z" fill="#F4F4F6"/>
</svg>
