<svg width="1211" height="367" viewBox="0 0 1211 367" fill="none" xmlns="http://www.w3.org/2000/svg">
<circle cx="1191" cy="135" r="20" fill="#8694F3"/>
<circle cx="1191" cy="134.999" r="8.57143" fill="#4834D4"/>
<circle cx="183.5" cy="183.5" r="183.5" fill="#503DD6"/>
<path d="M131.079 155.177C131.198 156.458 131.278 157.75 131.318 159.053L130.319 159.084C130.339 159.72 130.348 160.359 130.348 161C130.348 161.641 130.339 162.28 130.319 162.916L131.318 162.947C131.278 164.25 131.198 165.543 131.079 166.823L130.083 166.73C129.964 168.008 129.805 169.273 129.609 170.525L130.597 170.68C130.395 171.967 130.153 173.24 129.873 174.499L128.897 174.282C128.619 175.531 128.303 176.766 127.95 177.984L128.91 178.262C128.548 179.511 128.147 180.743 127.71 181.957L126.769 181.618C126.335 182.821 125.864 184.006 125.358 185.171L126.275 185.57C125.757 186.761 125.203 187.933 124.614 189.082L123.724 188.625C123.141 189.762 122.523 190.877 121.872 191.968L122.731 192.48C122.065 193.596 121.366 194.687 120.633 195.752L119.809 195.186C119.086 196.238 118.331 197.264 117.544 198.263L118.33 198.882C117.528 199.901 116.694 200.893 115.83 201.856L115.086 201.189C114.234 202.138 113.353 203.058 112.443 203.948L113.143 204.663C112.216 205.57 111.261 206.445 110.278 207.289L109.627 206.53C108.66 207.359 107.667 208.157 106.648 208.921L107.248 209.721C106.211 210.498 105.149 211.24 104.063 211.947L103.518 211.109C102.451 211.803 101.361 212.462 100.249 213.085L100.737 213.957C99.6082 214.589 98.4569 215.183 97.2847 215.739L96.8563 214.835C95.7084 215.38 94.5401 215.886 93.353 216.353L93.7191 217.284C92.5166 217.757 91.2951 218.19 90.056 218.582L89.7542 217.629C88.5457 218.011 87.3201 218.354 86.0791 218.655L86.3149 219.627C85.0615 219.931 83.7925 220.194 82.5094 220.414L82.3406 219.428C81.0925 219.642 79.8306 219.814 78.5565 219.944L78.6577 220.938C77.378 221.068 76.0862 221.156 74.7836 221.2L74.75 220.201C74.1149 220.222 73.4771 220.233 72.8368 220.233C72.1966 220.233 71.5588 220.222 70.9237 220.201L70.89 221.2C69.5875 221.156 68.2957 221.068 67.016 220.938L67.1171 219.944C65.843 219.814 64.5812 219.642 63.333 219.428L63.1643 220.414C61.8811 220.194 60.6121 219.931 59.3587 219.627L59.5945 218.655C58.3535 218.354 57.128 218.011 55.9194 217.629L55.6177 218.582C54.3786 218.19 53.1571 217.757 51.9546 217.284L52.3207 216.353C51.1336 215.886 49.9653 215.38 48.8173 214.835L48.389 215.739C47.2168 215.183 46.0654 214.589 44.9366 213.957L45.4248 213.085C44.3126 212.462 43.2225 211.803 42.156 211.109L41.6106 211.947C40.5244 211.24 39.4624 210.498 38.4261 209.721L39.0259 208.921C38.0071 208.157 37.0135 207.359 36.0468 206.53L35.3955 207.289C34.413 206.445 33.4576 205.57 32.5311 204.663L33.2305 203.948C32.3209 203.058 31.4394 202.138 30.5878 201.189L29.8434 201.856C28.9794 200.893 28.1456 199.901 27.3434 198.882L28.1293 198.263C27.343 197.264 26.5876 196.238 25.8646 195.186L25.0405 195.752C24.3081 194.687 23.6084 193.596 22.943 192.48L23.8017 191.968C23.1506 190.877 22.5328 189.762 21.9499 188.625L21.0601 189.082C20.4707 187.933 19.9164 186.761 19.3985 185.57L20.3157 185.171C19.8094 184.006 19.3387 182.821 18.9048 181.618L17.9641 181.957C17.5265 180.743 17.1259 179.511 16.7635 178.262L17.7239 177.984C17.3706 176.766 17.0543 175.531 16.7764 174.282L15.8002 174.499C15.5203 173.24 15.2787 171.967 15.0767 170.68L16.0646 170.525C15.8682 169.273 15.7098 168.008 15.5908 166.73L14.5951 166.823C14.4758 165.543 14.3954 164.25 14.3552 162.947L15.3547 162.916C15.3351 162.28 15.3252 161.641 15.3252 161C15.3252 160.359 15.3351 159.72 15.3547 159.084L14.3552 159.053C14.3954 157.75 14.4758 156.458 14.5951 155.177L15.5908 155.27C15.7098 153.993 15.8682 152.728 16.0646 151.476L15.0767 151.321C15.2787 150.034 15.5203 148.76 15.8002 147.502L16.7764 147.719C17.0543 146.469 17.3706 145.235 17.7239 144.017L16.7635 143.738C17.1259 142.489 17.5265 141.257 17.9641 140.043L18.9048 140.382C19.3387 139.179 19.8094 137.994 20.3157 136.829L19.3985 136.431C19.9164 135.239 20.4707 134.068 21.0601 132.918L21.9499 133.375C22.5328 132.238 23.1506 131.124 23.8017 130.032L22.943 129.52C23.6084 128.405 24.3081 127.314 25.0405 126.248L25.8646 126.814C26.5876 125.763 27.343 124.736 28.1293 123.737L27.3434 123.119C28.1456 122.099 28.9794 121.107 29.8434 120.144L30.5878 120.812C31.4394 119.862 32.3209 118.942 33.2305 118.052L32.5311 117.337C33.4576 116.431 34.4129 115.555 35.3955 114.712L36.0467 115.471C37.0135 114.641 38.0071 113.844 39.0259 113.08L38.4261 112.28C39.4623 111.503 40.5244 110.76 41.6105 110.053L42.156 110.891C43.2225 110.197 44.3126 109.538 45.4248 108.916L44.9366 108.043C46.0654 107.411 47.2168 106.817 48.389 106.261L48.8173 107.165C49.9653 106.621 51.1335 106.114 52.3206 105.647L51.9546 104.717C53.1571 104.244 54.3786 103.81 55.6177 103.418L55.9194 104.371C57.128 103.989 58.3535 103.646 59.5945 103.345L59.3587 102.373C60.6121 102.069 61.8811 101.806 63.1642 101.587L63.333 102.572C64.5812 102.359 65.843 102.186 67.1171 102.057L67.016 101.062C68.2957 100.932 69.5875 100.844 70.89 100.8L70.9237 101.8C71.5588 101.778 72.1966 101.768 72.8368 101.768C73.4771 101.768 74.1148 101.778 74.75 101.8L74.7836 100.8C76.0862 100.844 77.378 100.932 78.6577 101.062L78.5565 102.057C79.8306 102.186 81.0924 102.359 82.3406 102.572L82.5094 101.587C83.7925 101.806 85.0615 102.069 86.3149 102.373L86.0791 103.345C87.3201 103.646 88.5457 103.989 89.7542 104.371L90.056 103.418C91.2951 103.81 92.5166 104.244 93.7191 104.717L93.353 105.647C94.5401 106.114 95.7084 106.621 96.8563 107.165L97.2847 106.261C98.4569 106.817 99.6082 107.411 100.737 108.043L100.249 108.916C101.361 109.538 102.451 110.197 103.518 110.891L104.063 110.053C105.149 110.76 106.211 111.503 107.248 112.28L106.648 113.08C107.667 113.844 108.66 114.641 109.627 115.471L110.278 114.712C111.261 115.555 112.216 116.431 113.143 117.337L112.443 118.052C113.353 118.942 114.234 119.862 115.086 120.812L115.83 120.144C116.694 121.107 117.528 122.099 118.33 123.119L117.544 123.737C118.331 124.736 119.086 125.763 119.809 126.814L120.633 126.248C121.366 127.314 122.065 128.405 122.731 129.52L121.872 130.032C122.523 131.124 123.141 132.238 123.724 133.375L124.614 132.918C125.203 134.068 125.757 135.239 126.275 136.431L125.358 136.829C125.864 137.994 126.335 139.179 126.769 140.382L127.71 140.043C128.147 141.257 128.548 142.489 128.91 143.738L127.95 144.017C128.303 145.235 128.619 146.469 128.897 147.719L129.873 147.502C130.153 148.76 130.395 150.034 130.597 151.321L129.609 151.476C129.805 152.728 129.964 153.993 130.083 155.27L131.079 155.177Z" stroke="#8796F8" stroke-width="2" stroke-dasharray="4 4"/>
<path d="M30.1396 108.5C30.1396 103.859 31.9307 99.4075 35.1188 96.1256C38.307 92.8437 42.631 91 47.1396 91H98.1396C102.648 91 106.972 92.8437 110.16 96.1256C113.349 99.4075 115.14 103.859 115.14 108.5V213.5C115.14 218.141 113.349 222.592 110.16 225.874C106.972 229.156 102.648 231 98.1396 231H47.1396C42.631 231 38.307 229.156 35.1188 225.874C31.9307 222.592 30.1396 218.141 30.1396 213.5V108.5ZM81.1396 204.75C81.1396 202.429 80.2441 200.204 78.6501 198.563C77.056 196.922 74.894 196 72.6396 196C70.3853 196 68.2233 196.922 66.6292 198.563C65.0352 200.204 64.1396 202.429 64.1396 204.75C64.1396 207.071 65.0352 209.296 66.6292 210.937C68.2233 212.578 70.3853 213.5 72.6396 213.5C74.894 213.5 77.056 212.578 78.6501 210.937C80.2441 209.296 81.1396 207.071 81.1396 204.75Z" fill="white"/>
</svg>
